<svg width="90" height="30" viewBox="0 0 90 30" fill="none" xmlns="http://www.w3.org/2000/svg">
<g clip-path="url(#clip0_14_380)">
<path d="M20.7674 17.9219C15.7166 17.9473 14.899 21.102 14.6288 23.7671L14.5041 24.9473H13.4879L13.3632 23.7671C13.0907 21.0997 12.25 17.9473 7.37245 17.9219C6.55489 16.1782 6.21771 14.7671 6.21771 13.1782C6.21792 12.1591 6.42058 11.1501 6.81392 10.2099C7.20725 9.26974 7.78344 8.41705 8.50901 7.70136C9.23458 6.98567 10.0951 6.42123 11.0406 6.04083C11.9861 5.66042 12.9977 5.47162 14.0168 5.48539C18.6704 5.48539 21.7651 9.18054 21.7651 13.2036C21.7651 14.7671 21.6172 16.1782 20.7743 17.9219M13.966 0.665527C6.29161 0.665527 0.00292969 7.17823 0.00292969 15.1528C0.00292969 23.1274 6.29161 29.6655 13.966 29.6655C21.7142 29.6655 27.9775 23.1528 27.9775 15.1528C27.9775 7.15283 21.7142 0.665527 13.966 0.665527Z" fill="#29B24A"/>
<path d="M56.8179 17.9727H61.8988C61.1066 19.9727 59.3237 20.9218 57.2798 20.9218C53.6655 20.9218 51.9819 18.0235 51.9819 15.1482C51.9819 12.2729 53.5662 9.3029 57.2544 9.3029C59.5062 9.3029 61.1805 10.3791 61.8341 12.3052H66.0189C65.3006 7.97265 61.6309 5.48535 57.3052 5.48535C51.9588 5.48535 47.9473 9.25441 47.9473 15.2036C47.9473 21.229 52.3052 24.7925 57.2798 24.7925C62.1828 24.7925 66.0189 21.4854 66.0189 16.3052V14.7925H56.8179V17.9727Z" fill="#403F41"/>
<path d="M85.4605 11.3306H89.569C89.0517 7.33064 86.1256 5.23364 82.0702 5.23364C77.9616 5.23364 75.2133 7.41378 75.2133 11.1574C75.2133 15.4138 78.7538 16.363 80.636 16.7463C83.0632 17.2336 85.4397 17.2845 85.4397 19.4392C85.4397 20.9011 84.2503 21.6193 82.569 21.6193C80.4905 21.6193 79.1048 20.5431 78.7561 18.5939H74.6914C74.9385 22.7995 77.8854 25.0604 82.218 25.0604C86.2295 25.0604 89.5205 23.1621 89.5205 19.0558C89.5205 14.6447 85.733 13.8503 83.084 13.4415C81.2757 13.1597 79.2965 12.9034 79.2965 10.9288C79.2965 9.54311 80.3126 8.69785 82.0193 8.69785C84.0009 8.69785 85.1879 9.85258 85.4605 11.3399" fill="#403F41"/>
<path d="M72.4396 5.87109H68.5527V24.46H72.4396V5.87109Z" fill="#403F41"/>
<path d="M39.0417 5.48535C34.5844 5.48535 31.2934 8.38374 31.3165 13.2036H35.3281C35.2796 11.102 36.5659 9.17819 38.8431 9.17819C40.8246 9.17819 41.9863 10.6147 41.9863 12.2544C41.9863 13.8941 40.8315 14.8179 38.6699 15.8179C35.723 17.1759 33.6191 18.0489 31.4666 18.8202V24.4599H46.4782V20.6632H36.178L36.2288 20.647C37.8071 20.1327 39.3501 19.5155 40.8477 18.7994C44.1895 17.2613 46.0971 15.3352 46.0971 12.0558C46.0971 8.03039 43.2265 5.49228 39.0417 5.49228" fill="#403F41"/>
</g>
<defs>
<clipPath id="clip0_14_380">
<rect width="89.5704" height="29" fill="white" transform="translate(0 0.665527)"/>
</clipPath>
</defs>
</svg>
