<svg width="40" height="41" viewBox="0 0 40 41" fill="none" xmlns="http://www.w3.org/2000/svg">
<g clip-path="url(#clip0_14_204)">
<path d="M39.8026 15.4815L33.2667 4.98051C33.1493 4.79193 32.9858 4.63637 32.7916 4.52849C32.5974 4.42062 32.379 4.36399 32.1568 4.36395H7.84335C7.62122 4.36401 7.40276 4.42064 7.20859 4.52851C7.01441 4.63639 6.85091 4.79194 6.73351 4.98051L0.197624 15.4815C0.0449967 15.7265 -0.0222174 16.0152 0.00647255 16.3024C0.0351625 16.5897 0.158142 16.8593 0.356217 17.0693L19.0489 36.8944C19.1711 37.0241 19.3185 37.1274 19.4821 37.1979C19.6457 37.2685 19.822 37.3049 20.0001 37.3049C20.1783 37.3049 20.3546 37.2684 20.5181 37.1977C20.6817 37.1271 20.8291 37.0237 20.9512 36.894L39.6439 17.0693C39.8419 16.8593 39.9648 16.5896 39.9935 16.3024C40.0222 16.0152 39.9551 15.7266 39.8026 15.4815ZM20.0001 34.0923L2.94924 16.0083L8.56967 6.97831H31.4309L37.0509 16.0083L20.0001 34.0923Z" fill="white"/>
<path d="M1.3075 14.865H38.6928V17.4793H1.3075V14.865Z" fill="white"/>
<path d="M13.4276 16.0472L15.4433 5.92653L12.879 5.41583L10.7875 15.9168C10.7382 16.1652 10.762 16.4225 10.856 16.6576L18.7862 36.4832L21.2136 35.5124L13.4276 16.0472Z" fill="white"/>
<path d="M29.2959 15.8119L27.1173 5.61584L24.5609 6.16225L26.6563 15.9674L18.788 35.5098L21.2128 36.4858L29.2306 16.5735C29.3274 16.3317 29.3502 16.0666 29.2959 15.8119Z" fill="white"/>
</g>
<defs>
<clipPath id="clip0_14_204">
<rect width="40" height="40" fill="white" transform="translate(0 0.834473)"/>
</clipPath>
</defs>
</svg>
