<svg width="210" height="43" viewBox="0 0 210 43" fill="none" xmlns="http://www.w3.org/2000/svg">
<path d="M11.7602 15.8656H3.74488V29.4393H0V12.3901H15.5051V29.4393H11.7602V15.8656Z" fill="#FF4A37"/>
<path d="M19.1493 12.39H22.8942V14.2589C23.6607 13.5376 24.4819 12.9802 25.3579 12.5867C26.2339 12.1933 27.2194 11.9966 28.3144 11.9966C29.5408 11.9966 30.6687 12.2261 31.698 12.6851C32.7492 13.1223 33.647 13.7452 34.3916 14.554C35.1362 15.3408 35.7166 16.2808 36.1327 17.3736C36.5488 18.4447 36.7568 19.6141 36.7568 20.8818C36.7568 22.1933 36.5269 23.3955 36.067 24.4884C35.629 25.5594 35.0267 26.4884 34.2602 27.2753C33.4938 28.0403 32.574 28.6414 31.5009 29.0786C30.4497 29.5157 29.3218 29.7343 28.1173 29.7343C27.0442 29.7343 26.0806 29.5704 25.2265 29.2425C24.3724 28.9146 23.595 28.4556 22.8942 27.8655V35.9966H19.1493V12.39ZM27.5589 26.2589C28.3035 26.2589 28.9933 26.1387 29.6284 25.8982C30.2854 25.6578 30.8548 25.3081 31.3366 24.8491C31.8184 24.3682 32.1907 23.7999 32.4535 23.1441C32.7382 22.4665 32.8806 21.7015 32.8806 20.8491C32.8806 20.0622 32.7601 19.3409 32.5192 18.6851C32.2783 18.0075 31.9279 17.4392 31.468 16.9802C31.03 16.4993 30.5044 16.1277 29.8912 15.8655C29.278 15.6032 28.5991 15.472 27.8545 15.472C26.7157 15.472 25.7083 15.7452 24.8323 16.2917C23.9782 16.8381 23.3322 17.4939 22.8942 18.2589V23.4392C23.3322 24.3573 23.9563 25.0567 24.7666 25.5376C25.5769 26.0185 26.5077 26.2589 27.5589 26.2589Z" fill="#FF4A37"/>
<path d="M38.7026 20.8818C38.7026 19.5922 38.9216 18.4119 39.3596 17.3409C39.7976 16.248 40.4218 15.3081 41.2321 14.5212C42.0424 13.7343 43.006 13.1223 44.1229 12.6851C45.2398 12.2261 46.4771 11.9966 47.8349 11.9966C49.1708 11.9966 50.3972 12.2261 51.5141 12.6851C52.6529 13.1223 53.6274 13.7343 54.4377 14.5212C55.248 15.3081 55.8722 16.248 56.3102 17.3409C56.7701 18.4119 57 19.5922 57 20.8818C57 22.1715 56.7701 23.3627 56.3102 24.4556C55.8722 25.5267 55.248 26.4556 54.4377 27.2425C53.6274 28.0294 52.6529 28.6414 51.5141 29.0786C50.3972 29.5157 49.1708 29.7343 47.8349 29.7343C46.499 29.7343 45.2726 29.5157 44.1557 29.0786C43.0388 28.6414 42.0752 28.0294 41.2649 27.2425C40.4546 26.4556 39.8195 25.5267 39.3596 24.4556C38.9216 23.3627 38.7026 22.1715 38.7026 20.8818ZM42.5789 20.8818C42.5789 21.6469 42.6994 22.3573 42.9403 23.013C43.2031 23.6687 43.5644 24.237 44.0243 24.7179C44.4842 25.1988 45.0317 25.5813 45.6668 25.8655C46.3238 26.1277 47.0465 26.2589 47.8349 26.2589C48.6233 26.2589 49.335 26.1387 49.9701 25.8982C50.6271 25.6359 51.1856 25.2753 51.6455 24.8163C52.1054 24.3354 52.4667 23.7671 52.7295 23.1114C52.9923 22.4556 53.1237 21.7124 53.1237 20.8818C53.1237 20.0512 52.9814 19.3081 52.6967 18.6523C52.4339 17.9747 52.0616 17.4064 51.5798 16.9474C51.098 16.4665 50.5395 16.1059 49.9044 15.8655C49.2693 15.6032 48.5795 15.472 47.8349 15.472C47.0903 15.472 46.3895 15.6032 45.7325 15.8655C45.0974 16.1059 44.539 16.4665 44.0572 16.9474C43.5973 17.4064 43.2359 17.9747 42.9731 18.6523C42.7103 19.3081 42.5789 20.0512 42.5789 20.8818Z" fill="#FF4A37"/>
<path d="M58 25.9639H59.9776C60.7467 24.9803 61.2631 23.8546 61.5268 22.5869C61.7905 21.3191 61.9223 19.8874 61.9223 18.2918V12.3901H75.6998V25.9639H78.1059V33.341H74.6121V29.4393H61.4938V33.341H58V25.9639ZM71.9423 25.9639V15.8656H65.482V20.2262C65.482 21.2754 65.3392 22.3246 65.0535 23.3737C64.7679 24.4011 64.3724 25.2645 63.867 25.9639H71.9423Z" fill="#3981F1"/>
<path d="M78.8682 20.8818C78.8682 19.5922 79.0879 18.4119 79.5274 17.3409C79.9668 16.248 80.5931 15.3081 81.4061 14.5212C82.2191 13.7343 83.186 13.1223 84.3066 12.6851C85.4273 12.2261 86.6688 11.9966 88.0312 11.9966C89.3715 11.9966 90.6021 12.2261 91.7227 12.6851C92.8654 13.1223 93.8432 13.7343 94.6562 14.5212C95.4692 15.3081 96.0955 16.248 96.5349 17.3409C96.9964 18.4119 97.2271 19.5922 97.2271 20.8818C97.2271 22.1715 96.9964 23.3627 96.5349 24.4556C96.0955 25.5267 95.4692 26.4556 94.6562 27.2425C93.8432 28.0294 92.8654 28.6414 91.7227 29.0786C90.6021 29.5157 89.3715 29.7343 88.0312 29.7343C86.6908 29.7343 85.4602 29.5157 84.3396 29.0786C83.2189 28.6414 82.2521 28.0294 81.4391 27.2425C80.626 26.4556 79.9888 25.5267 79.5274 24.4556C79.0879 23.3627 78.8682 22.1715 78.8682 20.8818ZM82.7575 20.8818C82.7575 21.6469 82.8783 22.3573 83.12 23.013C83.3837 23.6687 83.7463 24.237 84.2077 24.7179C84.6692 25.1988 85.2185 25.5813 85.8558 25.8655C86.515 26.1277 87.2401 26.2589 88.0312 26.2589C88.8222 26.2589 89.5363 26.1387 90.1736 25.8982C90.8328 25.6359 91.3931 25.2753 91.8546 24.8163C92.316 24.3354 92.6786 23.7671 92.9423 23.1114C93.2059 22.4556 93.3378 21.7124 93.3378 20.8818C93.3378 20.0512 93.195 19.3081 92.9093 18.6523C92.6456 17.9747 92.2721 17.4064 91.7886 16.9474C91.3052 16.4665 90.7449 16.1059 90.1077 15.8655C89.4704 15.6032 88.7783 15.472 88.0312 15.472C87.2841 15.472 86.5809 15.6032 85.9217 15.8655C85.2845 16.1059 84.7241 16.4665 84.2407 16.9474C83.7793 17.4064 83.4167 17.9747 83.153 18.6523C82.8893 19.3081 82.7575 20.0512 82.7575 20.8818Z" fill="#3981F1"/>
<path d="M99.5526 12.3901H103.31V19.3082L110.726 12.3901H115.637L107.298 20.0951L115.934 29.4393H111.122L104.563 22.4229L103.31 23.636V29.4393H99.5526V12.3901Z" fill="#3981F1"/>
<path d="M117.12 12.3901H133.271V15.8656H127.074V29.4393H123.317V15.8656H117.12V12.3901Z" fill="#3981F1"/>
<path d="M134.092 20.8818C134.092 19.5922 134.312 18.4119 134.752 17.3409C135.191 16.248 135.817 15.3081 136.63 14.5212C137.443 13.7343 138.41 13.1223 139.531 12.6851C140.651 12.2261 141.893 11.9966 143.255 11.9966C144.596 11.9966 145.826 12.2261 146.947 12.6851C148.09 13.1223 149.067 13.7343 149.88 14.5212C150.693 15.3081 151.32 16.248 151.759 17.3409C152.221 18.4119 152.451 19.5922 152.451 20.8818C152.451 22.1715 152.221 23.3627 151.759 24.4556C151.32 25.5267 150.693 26.4556 149.88 27.2425C149.067 28.0294 148.09 28.6414 146.947 29.0786C145.826 29.5157 144.596 29.7343 143.255 29.7343C141.915 29.7343 140.684 29.5157 139.564 29.0786C138.443 28.6414 137.476 28.0294 136.663 27.2425C135.85 26.4556 135.213 25.5267 134.752 24.4556C134.312 23.3627 134.092 22.1715 134.092 20.8818ZM137.982 20.8818C137.982 21.6469 138.103 22.3573 138.344 23.013C138.608 23.6687 138.97 24.237 139.432 24.7179C139.893 25.1988 140.443 25.5813 141.08 25.8655C141.739 26.1277 142.464 26.2589 143.255 26.2589C144.046 26.2589 144.761 26.1387 145.398 25.8982C146.057 25.6359 146.617 25.2753 147.079 24.8163C147.54 24.3354 147.903 23.7671 148.166 23.1114C148.43 22.4556 148.562 21.7124 148.562 20.8818C148.562 20.0512 148.419 19.3081 148.133 18.6523C147.87 17.9747 147.496 17.4064 147.013 16.9474C146.529 16.4665 145.969 16.1059 145.332 15.8655C144.695 15.6032 144.002 15.472 143.255 15.472C142.508 15.472 141.805 15.6032 141.146 15.8655C140.509 16.1059 139.948 16.4665 139.465 16.9474C139.003 17.4064 138.641 17.9747 138.377 18.6523C138.114 19.3081 137.982 20.0512 137.982 20.8818Z" fill="#3981F1"/>
<path d="M154.747 12.39H158.504V14.2589C159.273 13.5376 160.097 12.9802 160.976 12.5867C161.855 12.1933 162.844 11.9966 163.943 11.9966C165.173 11.9966 166.305 12.2261 167.338 12.6851C168.392 13.1223 169.293 13.7452 170.04 14.554C170.787 15.3408 171.37 16.2808 171.787 17.3736C172.205 18.4447 172.413 19.6141 172.413 20.8818C172.413 22.1933 172.183 23.3955 171.721 24.4884C171.282 25.5594 170.678 26.4884 169.908 27.2753C169.139 28.0403 168.216 28.6414 167.14 29.0786C166.085 29.5157 164.953 29.7343 163.745 29.7343C162.668 29.7343 161.701 29.5704 160.844 29.2425C159.987 28.9146 159.207 28.4556 158.504 27.8655V35.9966H154.747V12.39ZM163.185 26.2589C163.932 26.2589 164.624 26.1387 165.261 25.8982C165.92 25.6578 166.492 25.3081 166.975 24.8491C167.458 24.3682 167.832 23.7999 168.096 23.1441C168.381 22.4665 168.524 21.7015 168.524 20.8491C168.524 20.0622 168.403 19.3409 168.162 18.6851C167.92 18.0075 167.568 17.4392 167.107 16.9802C166.667 16.4993 166.14 16.1277 165.525 15.8655C164.909 15.6032 164.228 15.472 163.481 15.472C162.339 15.472 161.328 15.7452 160.449 16.2917C159.592 16.8381 158.944 17.4939 158.504 18.2589V23.4392C158.944 24.3573 159.57 25.0567 160.383 25.5376C161.196 26.0185 162.13 26.2589 163.185 26.2589Z" fill="#3981F1"/>
<path d="M174.277 20.8818C174.277 19.5922 174.497 18.4119 174.936 17.3409C175.376 16.248 176.002 15.3081 176.815 14.5212C177.628 13.7343 178.595 13.1223 179.715 12.6851C180.836 12.2261 182.078 11.9966 183.44 11.9966C184.78 11.9966 186.011 12.2261 187.132 12.6851C188.274 13.1223 189.252 13.7343 190.065 14.5212C190.878 15.3081 191.504 16.248 191.944 17.3409C192.405 18.4119 192.636 19.5922 192.636 20.8818C192.636 22.1715 192.405 23.3627 191.944 24.4556C191.504 25.5267 190.878 26.4556 190.065 27.2425C189.252 28.0294 188.274 28.6414 187.132 29.0786C186.011 29.5157 184.78 29.7343 183.44 29.7343C182.1 29.7343 180.869 29.5157 179.748 29.0786C178.628 28.6414 177.661 28.0294 176.848 27.2425C176.035 26.4556 175.398 25.5267 174.936 24.4556C174.497 23.3627 174.277 22.1715 174.277 20.8818ZM178.166 20.8818C178.166 21.6469 178.287 22.3573 178.529 23.013C178.793 23.6687 179.155 24.237 179.617 24.7179C180.078 25.1988 180.627 25.5813 181.265 25.8655C181.924 26.1277 182.649 26.2589 183.44 26.2589C184.231 26.2589 184.945 26.1387 185.582 25.8982C186.242 25.6359 186.802 25.2753 187.263 24.8163C187.725 24.3354 188.087 23.7671 188.351 23.1114C188.615 22.4556 188.747 21.7124 188.747 20.8818C188.747 20.0512 188.604 19.3081 188.318 18.6523C188.054 17.9747 187.681 17.4064 187.197 16.9474C186.714 16.4665 186.154 16.1059 185.516 15.8655C184.879 15.6032 184.187 15.472 183.44 15.472C182.693 15.472 181.99 15.6032 181.331 15.8655C180.693 16.1059 180.133 16.4665 179.65 16.9474C179.188 17.4064 178.826 17.9747 178.562 18.6523C178.298 19.3081 178.166 20.0512 178.166 20.8818Z" fill="#3981F1"/>
<path d="M194.97 12.3901H202.287C204.682 12.3901 206.484 12.7289 207.693 13.4065C208.901 14.0841 209.506 15.2535 209.506 16.9147C209.506 17.7016 209.33 18.3683 208.978 18.9147C208.627 19.4612 208.165 19.953 207.594 20.3901C208.407 20.6962 209.011 21.2098 209.407 21.9311C209.802 22.6306 210 23.4393 210 24.3574C210 26.0623 209.396 27.341 208.187 28.1934C206.979 29.024 205.276 29.4393 203.078 29.4393H194.97V12.3901ZM198.728 22.3901V26.0623H202.716C203.836 26.0623 204.682 25.9202 205.254 25.636C205.825 25.3519 206.111 24.8929 206.111 24.259C206.111 23.5814 205.836 23.1005 205.287 22.8164C204.759 22.5322 203.935 22.3901 202.815 22.3901H198.728ZM198.728 15.7672V19.1442H203.144C203.913 19.1442 204.518 19.0022 204.957 18.718C205.397 18.4339 205.616 17.9967 205.616 17.4065C205.616 16.7071 205.32 16.259 204.726 16.0623C204.155 15.8656 203.309 15.7672 202.188 15.7672H198.728Z" fill="#3981F1"/>
</svg>
