<svg xmlns="http://www.w3.org/2000/svg" version="1.1" xmlns:xlink="http://www.w3.org/1999/xlink"
    width="512" height="512" x="0" y="0" viewBox="0 0 512 512"
    style="enable-background:new 0 0 512 512" xml:space="preserve" class=""><g><g data-name="Layer 16"><path d="M19 160.92a20.5 20.5 0 0 1-2.07-.11A19 19 0 0 1 .11 139.88c1.22-11.24 2.69-22 4.51-32.94v-.19c8.79-49.54 52.76-93.5 102.32-102.26h.19a577.42 577.42 0 0 1 33-4.51 19 19 0 1 1 4.09 37.77 549.531 549.531 0 0 0-30.71 4.2C97.14 44.83 80.78 53.8 67.38 67.2S45 97 42.09 113.27C40.4 123.45 39 133.49 37.89 144A19 19 0 0 1 19 160.92zM493 161.11a19 19 0 0 1-18.86-17 545.364 545.364 0 0 0-4.2-30.7C467 97.14 458 80.78 444.62 67.38S414.86 45 398.54 42.11c-10.19-1.7-20.23-3.07-30.71-4.2A19 19 0 1 1 371.92.14c11.23 1.21 22 2.69 32.95 4.51h.19c49.56 8.76 93.53 52.72 102.29 102.25v.19c1.81 10.93 3.29 21.7 4.51 32.94A19 19 0 0 1 495 161a18 18 0 0 1-2 .11zM369.85 512a19 19 0 0 1-2-37.88c10.49-1.14 20.54-2.51 30.71-4.2 16.32-2.91 32.68-11.88 46.08-25.28s22.38-29.75 25.29-46.07c1.69-10.17 3.06-20.22 4.2-30.7a19 19 0 0 1 37.76 4.13c-1.22 11.24-2.7 22-4.51 32.94v.19c-8.75 49.54-52.72 93.5-102.28 102.25h-.19c-10.92 1.81-21.7 3.29-32.95 4.51-.74.11-1.43.11-2.11.11zM142.15 511.82a18.22 18.22 0 0 1-2.07-.12c-11.23-1.21-22-2.69-33-4.51h-.19C57.38 498.4 13.41 454.44 4.65 404.91v-.19C2.8 393.79 1.33 383 .11 371.78a19 19 0 0 1 37.78-4.09c1.14 10.48 2.51 20.52 4.2 30.7C45 414.7 54 431.06 67.38 444.46s29.76 22.37 46.08 25.27a531.47 531.47 0 0 0 30.71 4.2 19 19 0 0 1-2 37.89zM454.3 240.73c-47.25-69.95-122-111.12-196.9-111.12h-2.85c-74.91 0-149.65 41.18-196.9 111.12a27.11 27.11 0 0 0 0 30.43c47.25 69.94 122 111.11 196.9 111.11h2.85c74.91 0 149.65-41.18 196.9-111.11a27.07 27.07 0 0 0 0-30.43zm-290 79.07a222.47 222.47 0 0 1-70.94-63.86c19.17-26.53 43.57-48.52 70.94-63.86a195 195 0 0 1 46.34-18.73 94.2 94.2 0 0 0 0 165.19 195.48 195.48 0 0 1-46.33-18.74zm77.18-103.64a37.93 37.93 0 0 0-25.61 26.16 14 14 0 0 1-27-7.39 66.09 66.09 0 0 1 44.66-45.6 14 14 0 1 1 8 26.83zM347.63 319.8a194.79 194.79 0 0 1-46.33 18.73 94.2 94.2 0 0 0 0-165.18 195 195 0 0 1 46.34 18.73c27.37 15.34 51.77 37.33 70.94 63.86-19.17 26.53-43.58 48.52-70.95 63.86z" fill="#000000" opacity="1" data-original="#000000" class=""></path></g></g></svg>