<svg width="41" height="41" viewBox="0 0 41 41" fill="none" xmlns="http://www.w3.org/2000/svg">
<g clip-path="url(#clip0_14_226)">
<path fill-rule="evenodd" clip-rule="evenodd" d="M16.6511 10.2989C16.6511 12.3318 18.3006 13.9813 20.3335 13.9813C22.3665 13.9813 24.0158 12.3318 24.0158 10.2989C24.0158 8.26686 22.3667 6.61659 20.3335 6.61659C18.3004 6.61659 16.6511 8.26683 16.6511 10.2989ZM20.3335 11.6375C19.595 11.6375 18.9949 11.0374 18.9949 10.2989C18.9949 9.56087 19.5952 8.96034 20.3335 8.96034C21.0718 8.96034 21.672 9.56085 21.672 10.2989C21.672 11.0374 21.072 11.6375 20.3335 11.6375Z" fill="white"/>
<path fill-rule="evenodd" clip-rule="evenodd" d="M16.6511 20.3406C16.6511 22.3735 18.3004 24.0229 20.3335 24.0229C22.3664 24.0229 24.0158 22.3735 24.0158 20.3406C24.0158 18.3085 22.3665 16.6584 20.3335 16.6584C18.3003 16.6584 16.6511 18.3085 16.6511 20.3406ZM20.3335 21.6792C19.5949 21.6792 18.9949 21.0791 18.9949 20.3406C18.9949 19.6026 19.5951 19.0021 20.3335 19.0021C21.0718 19.0021 21.672 19.6026 21.672 20.3406C21.672 21.0791 21.0719 21.6792 20.3335 21.6792Z" fill="white"/>
<path fill-rule="evenodd" clip-rule="evenodd" d="M7.23682 15.3198C7.23682 15.967 7.76148 16.4917 8.40869 16.4917H15.3123C15.6231 16.4917 15.9212 16.3682 16.141 16.1485L19.3869 12.9024C19.8446 12.4448 19.8446 11.7028 19.3869 11.2452C18.9292 10.7875 18.1873 10.7875 17.7296 11.2452L14.8269 14.1479H8.40869C7.76148 14.1479 7.23682 14.6726 7.23682 15.3198Z" fill="white"/>
<path fill-rule="evenodd" clip-rule="evenodd" d="M21.2793 19.3944C21.7369 19.8521 22.4789 19.8521 22.9366 19.3944L25.8393 16.4917H32.2575C32.9047 16.4917 33.4294 15.967 33.4294 15.3198C33.4294 14.6726 32.9047 14.1479 32.2575 14.1479H25.3538C25.043 14.1479 24.745 14.2714 24.5252 14.4912L21.2793 17.7372C20.8216 18.1948 20.8216 18.9368 21.2793 19.3944Z" fill="white"/>
<path fill-rule="evenodd" clip-rule="evenodd" d="M0.333496 15.3198C0.333496 15.967 0.858162 16.4916 1.50537 16.4916H3.38818C4.03539 16.4916 4.56005 15.967 4.56005 15.3198C4.56005 14.6726 4.03539 14.1479 3.38818 14.1479H1.50537C0.858162 14.1479 0.333496 14.6726 0.333496 15.3198Z" fill="white"/>
<path fill-rule="evenodd" clip-rule="evenodd" d="M36.1069 15.3198C36.1069 15.967 36.6316 16.4916 37.2788 16.4916H39.1616C39.8088 16.4916 40.3335 15.967 40.3335 15.3198C40.3335 14.6726 39.8088 14.1479 39.1616 14.1479H37.2788C36.6316 14.1479 36.1069 14.6726 36.1069 15.3198Z" fill="white"/>
<path fill-rule="evenodd" clip-rule="evenodd" d="M9.17983 4.16635C9.63747 3.7087 9.63747 2.96671 9.17983 2.50907L7.84866 1.1779C7.39101 0.720253 6.64902 0.720253 6.19138 1.1779C5.73373 1.63554 5.73373 2.37753 6.19138 2.83518L7.52255 4.16635C7.98019 4.62399 8.72218 4.62399 9.17983 4.16635Z" fill="white"/>
<path fill-rule="evenodd" clip-rule="evenodd" d="M34.4757 29.4617C34.9334 29.0041 34.9334 28.2621 34.4757 27.8044L33.1446 26.4732C32.6869 26.0156 31.9449 26.0156 31.4873 26.4732C31.0296 26.9309 31.0296 27.6729 31.4873 28.1305L32.8184 29.4617C33.2761 29.9193 34.0181 29.9193 34.4757 29.4617Z" fill="white"/>
<path fill-rule="evenodd" clip-rule="evenodd" d="M6.19138 29.4618C6.64902 29.9194 7.39101 29.9194 7.84866 29.4618L9.17983 28.1306C9.63747 27.6729 9.63747 26.931 9.17983 26.4733C8.72218 26.0157 7.98019 26.0157 7.52255 26.4733L6.19138 27.8045C5.73373 28.2621 5.73373 29.0041 6.19138 29.4618Z" fill="white"/>
<path fill-rule="evenodd" clip-rule="evenodd" d="M31.4873 4.16629C31.9449 4.62393 32.6869 4.62393 33.1446 4.16629L34.4757 2.83512C34.9334 2.37747 34.9334 1.63548 34.4757 1.17784C34.0181 0.720192 33.2761 0.720192 32.8184 1.17784L31.4873 2.50901C31.0296 2.96665 31.0296 3.70864 31.4873 4.16629Z" fill="white"/>
<path fill-rule="evenodd" clip-rule="evenodd" d="M14.1405 30.8761C14.1405 31.5233 14.6651 32.048 15.3123 32.048H25.354C26.0012 32.048 26.5259 31.5233 26.5259 30.8761V30.875C26.5259 30.8749 26.5259 30.8749 26.5259 30.8748C26.526 29.771 26.7549 28.6791 27.198 27.6681C27.6397 26.6603 28.2847 25.7546 29.0926 25.0078C31.7661 22.6337 33.4296 19.1666 33.4296 15.3197C33.4296 8.09152 27.5614 2.22345 20.3332 2.22345C13.105 2.22345 7.23682 8.09152 7.23682 15.3197C7.23682 19.1666 8.90023 22.6336 11.5737 25.0078C12.3817 25.7546 13.0267 26.6603 13.4684 27.6681C13.9115 28.6791 14.1404 29.771 14.1405 30.8748C14.1405 30.8749 14.1405 30.8749 14.1405 30.875V30.8761ZM16.4176 29.7042C16.3007 28.6795 16.0308 27.6759 15.615 26.7272C15.0419 25.4196 14.2041 24.2449 13.1544 23.2772C13.1488 23.2721 13.1431 23.2669 13.1374 23.2619C10.946 21.3196 9.58057 18.4813 9.58057 15.3197C9.58057 9.38596 14.3994 4.5672 20.3332 4.5672C26.267 4.5672 31.0858 9.38596 31.0858 15.3197C31.0858 18.4813 29.7203 21.3196 27.529 23.2619C27.5233 23.2669 27.5176 23.2721 27.512 23.2772C26.4623 24.2449 25.6245 25.4196 25.0513 26.7272C24.6356 27.6759 24.3657 28.6795 24.2488 29.7042H16.4176Z" fill="white"/>
<path fill-rule="evenodd" clip-rule="evenodd" d="M20.3338 37.2355C18.2082 37.2355 16.4849 35.5121 16.4849 33.3866V32.048H24.1827V33.3866C24.1827 35.5121 22.4594 37.2355 20.3338 37.2355ZM14.1411 33.3866C14.1411 36.8065 16.9138 39.5792 20.3338 39.5792C23.7538 39.5792 26.5265 36.8065 26.5265 33.3866V30.8761C26.5265 30.2289 26.0018 29.7042 25.3546 29.7042H15.313C14.6658 29.7042 14.1411 30.2289 14.1411 30.8761V33.3866Z" fill="white"/>
<path fill-rule="evenodd" clip-rule="evenodd" d="M20.3335 40.8345C20.9807 40.8345 21.5054 40.3098 21.5054 39.6626V38.4074C21.5054 37.7602 20.9807 37.2356 20.3335 37.2356C19.6863 37.2356 19.1616 37.7602 19.1616 38.4074V39.6626C19.1616 40.3098 19.6863 40.8345 20.3335 40.8345Z" fill="white"/>
<path fill-rule="evenodd" clip-rule="evenodd" d="M12.8853 30.8761C12.8853 31.5233 13.4099 32.048 14.0571 32.048H26.6091C27.2563 32.048 27.781 31.5233 27.781 30.8761C27.781 30.2289 27.2563 29.7042 26.6091 29.7042H14.0571C13.4099 29.7042 12.8853 30.2289 12.8853 30.8761Z" fill="white"/>
</g>
<defs>
<clipPath id="clip0_14_226">
<rect width="40" height="40" fill="white" transform="translate(0.333496 0.834473)"/>
</clipPath>
</defs>
</svg>
