<svg width="304" height="118" viewBox="0 0 304 118" fill="none" xmlns="http://www.w3.org/2000/svg">
<path fill-rule="evenodd" clip-rule="evenodd" d="M71.1983 36.9343C71.1983 35.6175 71.6773 34.5793 72.336 33.9206C73.9462 32.308 75.9668 32.8464 77.6747 34.6031C78.9296 35.8938 79.3369 39.0544 78.8466 40.2944C78.436 41.3318 77.7717 41.9543 76.7752 42.4351C75.2029 43.1944 73.948 42.0809 72.9284 40.9619C71.6892 39.6013 71.1983 38.7426 71.1983 36.9343ZM55.0146 108.426L52.2713 105.641C55.009 104.379 62.2792 99.2345 64.3765 99.2128C63.9288 100.599 56.488 107.288 55.0146 108.426ZM30.3389 110.211C30.2261 110.089 30.1305 110.107 30.0265 110.055C31.3953 109.675 32.05 109.784 32.9983 110.181C35.1056 111.062 35.1331 110.789 35.1647 111.643L30.3389 110.211ZM67.7057 93.2541C66.2007 93.8277 66.1318 94.1271 65.8608 95.7733C63.7698 96.55 58.7249 96.2853 56.5871 96.2534C53.4666 96.2064 50.3136 96.5798 48.1466 93.994C50.6055 93.2234 54.9255 92.7222 57.6574 92.2935C64.2348 91.2613 77.5403 87.9873 84.2437 91.3858C81.6995 91.856 80.5386 90.9895 75.8002 92.7573C71.6537 94.3053 70.0141 96.2186 66.5674 98.0533C66.8836 95.4859 68.3326 95.6063 67.7057 93.2541ZM42.3115 113.307C41.1963 113.067 24.3617 103.744 23.0612 102.48C25.3346 101.572 27.2595 101.816 28.9099 102.336L33.723 104.285C35.186 105.072 40.8263 111.46 42.3115 113.307ZM51.3584 115.625C47.1227 117.003 47.9137 117.122 44.9001 113.799C41.6179 110.182 29.9741 97.967 28.7359 95.9775C31.5525 95.6928 32.4855 96.3711 35.0589 98.188C36.9608 99.5311 38.8244 101.134 40.8731 102.729C45.2289 106.121 48.1858 111.205 51.3584 115.625ZM46.6445 101.406C49.5283 104.716 52.3941 108.563 55.1081 110.142C58.423 108.649 71.9777 90.7686 84.8807 93.1898C86.2964 93.4561 88.106 93.6883 89.5897 94.411C91.1649 95.1767 92.4502 96.5585 94.3602 96.0269C93.2114 93.1366 85.7678 89.9625 83.9272 89.3135C83.0294 88.9961 82.021 88.7659 80.9324 88.6072C80.9365 88.5944 80.9406 88.5806 80.9429 88.5663C82.0098 82.7329 83.1682 77.5025 83.2129 71.9301C84.8512 71.9763 85.8352 71.9073 86.8572 70.9286C87.9472 69.8851 88.1079 69.3461 88.1641 67.574L88.6267 54.1311C88.6627 52.2751 88.5869 51.8794 87.5957 50.6986C83.68 46.0335 72.6306 44.7169 66.5517 48.3731C62.0456 51.0831 63.7844 53.504 61.4921 57.2322C61.0795 57.9028 60.0496 59.2372 59.4456 59.6486C58.9263 58.9052 57.3157 58.4315 57.072 58.0159C57.072 55.8478 57.309 51.731 57.0179 49.7905C56.5492 46.6624 52.7327 44.4209 49.5649 47.2667C49.0064 47.7685 49.0152 47.7203 48.6411 48.462C47.7758 50.1791 48.0177 56.3233 48.2057 58.1566C45.7023 56.8686 44.1497 54.9757 42.6475 52.6381C41.885 51.4519 41.6977 49.6543 40.8801 48.7764C40.2695 48.1215 38.5667 47.2299 37.2822 46.9129C37.2203 43.5976 37.3574 40.2415 37.2771 36.9281C37.1228 30.5952 27.43 30.3494 27.2915 37.0689C27.2242 40.3207 27.2918 43.6514 27.2918 46.9119C26.0466 47.1358 24.5801 47.8983 23.8744 48.5564C22.756 49.5982 22.7983 50.5965 22.7281 52.5191C22.6201 55.4848 22.7469 58.831 23.5783 61.5716C23.9632 62.8409 24.4801 64.1027 25.0985 65.1086C25.6865 66.0655 25.9703 66.1244 25.865 66.8244L24.2686 72.8597C24.0166 73.693 23.1622 76.0656 23.4427 76.7352C23.7817 77.2855 26.7169 77.8015 27.3035 77.8757L28.423 94.4906C27.9028 94.6621 27.4002 94.9488 26.9259 95.3801L27.4654 96.9691C27.5089 97.0357 28.6434 98.2622 28.8062 98.4344C29.8372 99.5241 30.7318 100.384 31.6321 101.702L30.9269 101.564C30.8469 101.544 30.6934 101.514 30.5985 101.489C28.744 100.996 23.5081 98.4677 21.2733 102.658C22.0826 104.821 27.9552 106.806 29.8971 108.304C28.4543 109.124 27.9178 109.084 27.1744 110.362C27.6288 111.982 30.1037 111.539 33.5019 112.437C36.8469 113.32 40.5955 114.441 43.7331 116.063C45.0022 116.719 45.5057 117.394 46.8932 117.842C49.0819 118.548 51.824 116.66 54.7826 116.627C75.1042 116.403 92.9333 105.78 103.126 87.9508C106.325 82.3558 108.755 73.8367 109.717 67.2861C110.016 65.2515 110.455 54.0865 108.769 52.0887C107.487 52.8813 107.963 53.5937 108.149 55.1213C108.297 56.3367 108.32 57.3552 108.412 58.5519C108.993 66.1008 107.698 71.5134 105.688 78.2644C103.387 85.9902 98.1632 94.5753 90.3116 101.606C81.6674 109.347 71.8306 113.142 61.191 114.64C53.3021 115.75 53.5991 116.111 48.8195 109.522C45.488 104.93 42.0932 100.419 38.8585 95.8229C39.6253 95.8302 40.4002 96.0689 41.1793 96.4796L46.6445 101.406ZM79.7309 88.4639C78.5572 88.3526 77.3106 88.3117 76.0227 88.3255C76.3219 85.072 76.6369 73.616 76.3803 72.8229C75.1726 72.5281 74.4925 72.9132 74.5033 74.0351L74.5834 88.362C73.3089 88.4131 72.007 88.5111 70.7077 88.6408C67.1058 70.4563 69.5539 72.5883 68.9478 55.8759L66.7841 55.8983C66.822 56.8365 67.0432 58.5508 66.68 59.3292C66.334 60.0728 64.5545 62.0028 64.0092 62.4116C62.7453 63.3605 61.822 63.9061 60.1592 64.2497L59.902 60.9598C60.7542 60.4638 61.3779 59.6156 62.0264 58.7416C65.2127 54.4471 63.2876 52.5314 66.1905 50.2604C71.3184 46.2488 80.5553 47.4257 85.3537 51.3809C86.4042 52.2471 86.7175 53.0425 86.674 54.3167L86.901 65.8819C86.7734 68.9723 87.1468 70.6098 83.237 70.6355L83.566 55.8933L82.217 55.8604C82.2766 61.1307 81.4741 66.7466 81.2763 72.0357C81.0588 77.8375 80.7991 82.6422 79.6596 88.3486C79.6535 88.3792 79.6807 88.4198 79.7309 88.4639ZM69.4913 88.7714C65.5981 89.218 61.8096 89.9167 58.9315 90.4839C58.3599 90.5965 57.2213 90.7791 55.8486 91.0051C56.0818 89.618 56.1017 88.2328 56.1809 86.7316C56.2389 85.6377 56.3429 82.0973 56.6062 81.283C57.6728 81.0945 58.6934 80.8427 59.497 80.4507C59.5964 79.5419 58.5995 76.2903 58.3447 75.1316C62.3408 74.9437 60.1075 68.5647 60.3243 65.6048C61.1011 65.3208 61.6651 65.2495 62.4323 64.9192C64.587 63.9914 65.445 62.8496 66.9172 61.3656C66.8694 64.5232 67.1169 67.7555 67.1026 70.914C67.0894 73.8569 67.4083 76.84 67.8495 79.6853L69.4913 88.7714ZM54.5639 91.2178C54.1829 91.2818 53.793 91.3483 53.3997 91.4162L53.2834 81.9937L55.1888 81.5127L54.5639 91.2178ZM51.953 91.6734C51.5272 91.7514 51.1056 91.8309 50.6956 91.9116L50.0447 81.4894L51.9756 81.9233C51.83 84.3372 51.9694 88.8579 51.9554 91.5457C51.9551 91.5903 51.954 91.6331 51.953 91.6734ZM49.4313 92.1714C47.5943 92.5685 46.2125 92.9723 46.1185 93.3151C46.5019 96.9214 51.6205 97.3718 53.6832 97.7055C56.0061 98.0817 61.1803 97.3025 62.9156 97.9513L51.2169 104.649C48.0274 101.228 40.4739 90.3621 36.8304 95.0508C37.139 96.3942 38.6502 98.036 39.6532 99.5221C39.4452 99.4309 39.1166 99.2871 38.7824 99.094C38.5027 98.9326 38.2829 98.7909 38.0111 98.6036C36.8161 97.7783 34.9496 96.1833 32.939 95.1802C33.1841 94.2877 32.9462 92.1362 32.9501 91.6106C32.9807 87.6729 32.777 81.7006 32.9702 78.3085L35.8718 79.187L34.849 96.1765C35.3876 96.2215 35.5855 96.9144 35.9695 96.7618L37.3273 77.9395L41.1463 76.9371C41.3894 75.8074 40.4989 73.5591 40.112 72.1792C39.0009 68.2181 37.2271 61.0746 36.6969 57.3128C37.0433 56.9902 37.1829 56.8204 37.5958 56.6027C37.8872 57.1518 37.8773 57.0656 38.3221 57.5208L38.6973 57.9847C39.5202 58.9578 43.9077 61.6938 45.2617 62.0611C45.1169 64.5919 44.8259 67.2168 44.6409 69.7757C44.431 72.6757 43.9485 74.4376 46.9067 75.207C46.6693 75.8658 45.6445 79.7364 45.773 80.2844C46.5054 81.0711 47.677 80.8908 48.6461 81.3465C49.0286 81.7608 49.0233 90.1847 49.4313 92.1714ZM32.0049 94.7659C31.2341 94.4678 30.4537 94.2846 29.693 94.2892L28.6354 78.1128L31.253 78.8411C31.4111 81.7655 31.6291 86.5636 31.6291 89.9184C31.6291 90.569 31.5955 93.3652 32.0049 94.7659ZM47.1878 73.832C46.219 73.7984 45.8251 73.4223 45.773 72.36L46.6161 61.4462C46.6886 60.3857 47.7074 60.3881 48.5078 59.9932C51.135 58.6958 55.1546 58.4648 57.6237 59.8661C58.5013 60.3643 58.5744 60.5949 58.6497 61.8068L58.9823 70.0639C59.1126 71.6286 60.0166 73.943 58.0256 73.7937C57.6304 72.464 55.9773 66.0728 56.4244 64.8039C56.5267 64.5142 57.7891 62.7736 55.8659 63.046C55.1052 64.2634 54.8065 65.2445 55.1815 67.0701L57.823 79.6657C54.464 80.4416 50.5073 80.6924 47.1784 79.5702C47.3014 78.4643 47.9085 76.502 48.2083 75.2807C48.8018 72.8638 49.8402 68.6272 50.2051 66.3027C50.3832 65.1685 49.4386 61.9638 47.8842 62.7777C47.6843 63.795 48.8688 64.5742 48.8255 65.7813C48.7907 66.7501 47.4441 73.0784 47.1878 73.832ZM49.46 55.3381C50.3902 55.8913 51.0548 56.5985 52.7179 56.586C54.4152 56.5734 54.8962 55.856 55.7548 55.3495L55.737 57.7973C53.286 57.6181 52.7324 56.6766 50.0944 57.2114L49.46 55.3381ZM26.2481 64.6735C26.0763 64.0589 25.8463 62.5115 25.5213 61.704C24.5221 59.2211 24.2717 56.2081 24.3669 53.5481C24.6755 44.8913 35.9972 46.6656 39.636 49.4615C40.7003 50.2789 39.9124 51.3453 41.5203 53.8743C42.2302 54.9898 43.9123 56.6976 44.8741 57.432L46.6115 58.7939C46.6235 58.7687 46.665 58.8372 46.6913 58.8587C44.9463 60.5064 45.87 59.9391 45.2736 60.649C43.7502 59.831 42.6469 59.2969 41.3508 58.4213C40.6399 57.9414 38.391 56.0503 38.3174 55.3431C38.2656 54.8486 39.0725 51.8996 37.7986 51.7663C35.2352 53.7276 37.5482 55.3846 35.3889 56.6055C35.0604 57.4487 36.7103 65.3576 37.0669 66.7487L39.0416 75.5125C37.8498 75.7024 37.1791 76.2839 35.8456 76.4406C31.934 76.8982 28.5325 77.0399 24.8012 75.958L27.2647 66.5645C30.764 52.5209 28.7453 58.0519 27.5655 54.9366C27.1456 53.8272 27.707 52.4304 27.2321 52.0244C26.1169 50.9034 25.862 53.3927 26.1558 54.7691C26.4716 56.2502 27.4299 56.7784 27.9095 57.3598L26.794 62.8762C26.6744 63.385 26.5424 64.281 26.2481 64.6735ZM55.315 49.1312C55.5125 49.3165 55.3957 49.1505 55.5426 49.4042C55.7428 49.7499 55.7522 50.1511 55.7677 50.5626C55.7867 51.058 55.623 52.6361 55.5821 53.1209C55.3395 55.9955 52.5621 55.5483 50.4781 53.1137C49.6049 52.0938 49.1896 49.8511 50.0065 48.6865C51.2438 46.9223 52.2111 47.3606 53.8599 48.1546C52.8398 50.4347 52.1097 49.2996 51.363 49.4992C50.3571 49.7676 50.9501 51.5759 53.5861 50.6004C54.4977 50.2632 55.0558 49.8925 55.315 49.1312ZM28.5781 42.4246C29.1749 42.7425 30.0481 44.0327 32.3454 44.0179C34.2184 44.0053 35.0752 43.0372 35.9803 42.4152L35.933 46.5779C32.8238 45.8402 32.0462 45.6846 29.8193 45.7316L28.5781 42.4246ZM29.6907 41.1951C28.1705 39.6585 28.4352 37.3127 28.9633 35.3582C28.9884 35.383 29.0214 35.4187 29.0367 35.4359L29.4899 35.9921C30.2527 36.8962 30.3503 37.0356 31.3878 37.4789C32.3308 37.8822 34.5603 38.2905 34.8213 37.0745C34.7906 35.6238 31.3959 37.8007 30.0081 34.2628C31.7107 32.4866 34.288 34.0913 35.1547 35.5489C36.1718 37.2595 36.0875 39.7538 34.9099 41.0952C33.4913 42.7104 31.3953 42.9173 29.6907 41.1951ZM69.9098 39.3236C70.1693 42.3027 73.0649 44.906 76.5677 43.9229C81.3075 42.5932 81.0577 36.3027 79.7003 33.9939C77.4193 30.1147 69.0764 29.7554 69.9098 39.3236Z" fill="white"/>
<path fill-rule="evenodd" clip-rule="evenodd" d="M78.5236 22.6601C75.9224 21.6566 68.8884 13.7046 68.7732 10.3401C71.5105 11.2724 77.8176 19.1404 78.5236 22.6601ZM72.3536 10.9844C77.9283 13.2256 80.9972 14.2214 86.4624 18.2137C87.828 19.2115 87.3499 19.3701 88.7608 19.0754C88.7024 16.6364 80.5752 13.0068 78.2212 11.5947C79.8753 10.8702 80.2508 11.2282 80.3385 9.81408C77.9447 8.57878 79.6453 11.4284 73.6198 9.8541C71.6931 9.35089 68.4206 8.59491 67.1476 7.74127C69.9946 6.4668 75.1848 3.17142 74.7648 0.182343C72.1268 -0.0841599 66.2717 2.88469 64.3421 5.26209C63.1055 6.78678 63.6404 7.22708 61.5719 7.11202C59.3839 6.98985 57.4694 6.5573 55.0104 6.56936C53.1176 6.57864 49.7613 7.10647 47.9879 6.95502C49.0476 5.31559 50.1631 5.56955 49.4778 3.8968C48.6142 3.89371 45.3353 7.38585 42.0309 8.22567C38.8692 9.02961 36.314 10.0741 33.1712 11.109C33.4948 10.0195 34.7635 4.95609 33.1441 3.65769C31.4316 3.95729 30.3608 6.50763 29.781 7.68684C28.9095 9.45907 28.6687 10.7136 29.3487 13.1122C25.4915 15.0738 22.9433 17.4921 19.6218 19.4233C19.7749 17.8841 20.2338 16.3863 20.0853 14.5811C19.9401 12.818 20.1326 10.5131 18.6366 9.18194C16.673 10.2635 14.9868 14.0313 14.5347 15.5905C13.4295 19.4019 14.9924 22.7992 14.8264 23.7505C14.5131 24.7307 11.6974 27.9245 10.9244 28.8267C8.93773 31.1468 6.1334 36.5878 4.73242 39.4412L2.47194 45.2429C0.752394 49.542 -1.48181 67.3807 1.35406 69.4229C3.05175 67.9809 1.40871 66.7146 1.58171 62.0066C1.82254 55.4478 3.52805 40.7469 9.03618 36.1515C12.0109 33.6689 12.5355 34.6247 15.0105 33.5154C14.1685 32.2492 14.0993 32.2808 12.672 32.5864C11.6127 32.8132 10.5416 33.3714 9.50207 33.8646C11.9978 29.4472 16.0798 23.9591 20.708 20.727C23.7882 21.7288 22.9156 23.2373 31.6406 24.0865C33.9083 24.3075 41.7676 24.5824 44.0453 22.6227C43.3769 21.0759 41.33 20.5775 39.9603 20.1562C35.6889 18.8417 35.0255 18.5749 30.2181 18.0009L24.6206 17.5254L36.4 11.184C38.7428 13.9732 48.2246 16.2726 52.0855 13.8873C50.2338 10.8393 45.6435 10.858 43.5824 9.53854C47.3117 8.13076 54.6721 7.20906 58.9622 9.46831C62.5106 11.3366 61.6838 12.3262 63.5159 11.8913C63.6819 10.576 61.789 9.37335 60.8249 8.55477L66.6026 9.02469C68.2896 13.8639 69.5211 15.9754 72.9594 19.747C74.9536 21.9351 78.6689 25.8263 81.0574 25.5536C81.2514 21.8801 74.6888 13.4162 72.3536 10.9844ZM40.823 22.2586C40.6985 22.2799 40.1851 22.3848 40.0586 22.4088C39.9355 22.4316 39.827 22.4546 39.6946 22.4781C36.2982 23.0816 25.0271 22.5462 22.9016 19.8411C27.1424 18.8046 32.7668 19.4045 36.5066 20.5247C37.3269 20.7708 37.6779 20.8109 38.5622 21.1174C38.8694 21.2244 39.2578 21.3625 39.6091 21.5347C39.7016 21.5802 39.8095 21.6384 39.8955 21.6843C39.9878 21.7326 40.119 21.8156 40.1953 21.8586C40.2759 21.9024 40.5083 22.1241 40.5065 22.0522C40.5045 21.9783 40.7184 22.1885 40.823 22.2586ZM65.2346 6.6667C66.3924 4.46487 69.9452 2.96067 72.0929 2.28209C70.8859 4.187 67.4459 6.42814 65.2346 6.6667ZM48.7165 13.1742C47.1559 13.6492 44.5465 13.19 43.2597 12.9623C41.3982 12.6336 40.147 12.3268 38.4158 11.0152C41.3932 10.2036 46.6161 11.7782 48.7165 13.1742ZM30.6066 12.088C30.1858 9.84071 31.1183 8.16701 32.3658 6.27468C32.4579 8.01031 32.0073 10.7229 30.6066 12.088ZM16.0223 22.3518C15.2273 19.1272 15.8586 14.2789 18.2138 11.7616C18.9283 14.3868 18.9137 20.6729 16.0223 22.3518Z" fill="white"/>
<path d="M262.938 36.6113C263.279 36.5153 263.641 36.4513 264.025 36.4193C264.409 36.3873 264.788 36.3713 265.161 36.3713C265.588 36.3713 266.009 36.4193 266.425 36.5153C266.841 36.6113 267.215 36.7873 267.546 37.0433C267.887 37.2993 268.159 37.6513 268.361 38.0993C268.575 38.5473 268.682 39.118 268.682 39.8113C268.682 40.4833 268.58 41.054 268.378 41.5233C268.186 41.9927 267.924 42.3767 267.593 42.6753C267.273 42.9633 266.9 43.1767 266.473 43.3153C266.057 43.4433 265.626 43.5073 265.178 43.5073C265.135 43.5073 265.065 43.5073 264.969 43.5073C264.873 43.5073 264.772 43.5073 264.665 43.5073C264.559 43.4967 264.452 43.486 264.346 43.4753C264.25 43.4647 264.18 43.454 264.137 43.4433V47.6993H262.938V36.6113ZM265.225 37.4753C265.012 37.4753 264.804 37.486 264.602 37.5073C264.41 37.518 264.255 37.5393 264.137 37.5713V42.3393C264.18 42.3607 264.244 42.3767 264.329 42.3873C264.425 42.3873 264.521 42.3927 264.617 42.4033C264.713 42.4033 264.804 42.4033 264.889 42.4033C264.985 42.4033 265.055 42.4033 265.098 42.4033C265.396 42.4033 265.684 42.366 265.962 42.2913C266.239 42.2167 266.484 42.0833 266.697 41.8913C266.911 41.6887 267.082 41.422 267.21 41.0913C267.348 40.75 267.417 40.3233 267.417 39.8113C267.417 39.3633 267.353 38.99 267.225 38.6913C267.108 38.3927 266.948 38.1527 266.745 37.9713C266.553 37.79 266.324 37.662 266.057 37.5873C265.791 37.5127 265.513 37.4753 265.225 37.4753Z" fill="white"/>
<path d="M261.685 37.6033H258.933V47.6993H257.733V37.6033H254.981V36.4993H261.685V37.6033Z" fill="white"/>
<path d="M252.531 42.5313H248.403V47.6993H247.203V36.4993H248.403V41.4273H252.531V36.4993H253.731V47.6993H252.531V42.5313Z" fill="white"/>
<path d="M240.344 36.4993H245.32V37.6033H241.544V41.3953H245.016V42.4993H241.544V46.5953H245.4V47.6993H240.344V36.4993Z" fill="white"/>
<path d="M238.987 49.7633H238.155L237.947 47.6993H231.531V36.4993H232.731V46.5953H236.603V36.4993H237.803V46.5953H238.987V49.7633Z" fill="white"/>
<path d="M224.894 40.3713L224.99 38.8993H224.941L224.382 40.4033L220.237 47.6993H219.438V36.4993H220.637V43.9393L220.525 45.3793H220.59L221.149 43.8753L225.31 36.4993H226.093V47.6993H224.894V40.3713ZM221.757 33.7793C221.779 34.174 221.885 34.4886 222.077 34.7233C222.28 34.958 222.552 35.0753 222.894 35.0753C223.235 35.0753 223.496 34.958 223.677 34.7233C223.869 34.4886 223.981 34.1793 224.013 33.7953L225.037 34.0353C224.952 34.6433 224.734 35.1126 224.382 35.4433C224.03 35.774 223.528 35.9393 222.877 35.9393C222.248 35.9393 221.726 35.79 221.31 35.4913C220.904 35.1926 220.669 34.7126 220.605 34.0513L221.757 33.7793Z" fill="white"/>
<path d="M216.19 40.3713L216.286 38.8993H216.238L215.678 40.4033L211.534 47.6993H210.734V36.4993H211.934V43.9393L211.822 45.3793H211.886L212.446 43.8753L216.606 36.4993H217.39V47.6993H216.19V40.3713Z" fill="white"/>
<path d="M204.62 42.5153H204.044V47.6993H202.844V36.4993H204.044V41.7153L204.604 41.4913L207.516 36.4993H208.892L205.964 41.3313L205.404 41.8433L206.06 42.4833L209.308 47.6993H207.788L204.62 42.5153Z" fill="white"/>
<path d="M201.372 47.2674C201.105 47.4914 200.769 47.6514 200.364 47.7474C199.958 47.8434 199.532 47.8914 199.084 47.8914C198.518 47.8914 197.996 47.7847 197.516 47.5714C197.036 47.358 196.62 47.022 196.268 46.5634C195.926 46.094 195.66 45.4914 195.468 44.7554C195.276 44.0194 195.18 43.134 195.18 42.0994C195.18 41.0327 195.286 40.1314 195.5 39.3954C195.724 38.6594 196.017 38.062 196.38 37.6034C196.742 37.1447 197.158 36.814 197.628 36.6114C198.108 36.4087 198.598 36.3074 199.1 36.3074C199.612 36.3074 200.033 36.3447 200.364 36.4194C200.705 36.494 200.998 36.5847 201.244 36.6914L200.956 37.7794C200.742 37.662 200.492 37.5714 200.204 37.5074C199.916 37.4434 199.585 37.4114 199.212 37.4114C198.838 37.4114 198.486 37.4967 198.156 37.6674C197.825 37.8274 197.532 38.094 197.276 38.4674C197.02 38.83 196.817 39.31 196.668 39.9074C196.518 40.5047 196.444 41.2354 196.444 42.0994C196.444 43.6567 196.71 44.83 197.244 45.6194C197.777 46.398 198.486 46.7874 199.372 46.7874C199.734 46.7874 200.06 46.7394 200.348 46.6434C200.636 46.5367 200.881 46.414 201.084 46.2754L201.372 47.2674Z" fill="white"/>
<path d="M192.266 42.5313H188.138V47.6993H186.938V36.4993H188.138V41.4273H192.266V36.4993H193.466V47.6993H192.266V42.5313Z" fill="white"/>
<path d="M183.69 40.3713L183.786 38.8993H183.738L183.178 40.4033L179.034 47.6993H178.234V36.4993H179.434V43.9393L179.322 45.3793H179.386L179.946 43.8753L184.106 36.4993H184.89V47.6993H183.69V40.3713Z" fill="white"/>
<path d="M176.878 49.7633H176.046L175.838 47.6993H169.422V36.4993H170.622V46.5953H174.494V36.4993H175.694V46.5953H176.878V49.7633Z" fill="white"/>
<path d="M166.175 40.3713L166.271 38.8993H166.223L165.663 40.4033L161.519 47.6993H160.719V36.4993H161.919V43.9393L161.807 45.3793H161.871L162.431 43.8753L166.591 36.4993H167.375V47.6993H166.175V40.3713Z" fill="white"/>
<path d="M159.359 49.7633H158.511L158.319 47.6993H152.111L151.919 49.7633H151.071V46.5953H151.999C152.063 46.4779 152.164 46.2006 152.303 45.7633C152.452 45.3259 152.596 44.7019 152.735 43.8913C152.884 43.0699 153.012 42.0513 153.119 40.8353C153.225 39.6086 153.273 38.1633 153.263 36.4993H158.191V46.5953H159.359V49.7633ZM156.991 46.5953V37.6033H154.415C154.361 39.9606 154.223 41.8699 153.999 43.3313C153.775 44.7926 153.529 45.8806 153.263 46.5953H156.991Z" fill="white"/>
<path d="M145.188 36.4993H150.163V37.6033H146.387V41.3953H149.859V42.4993H146.387V46.5953H150.243V47.6993H145.188V36.4993Z" fill="white"/>
<path d="M141.944 40.3393L142.088 38.6433H142.024L141.512 40.2273L139.256 45.0913H138.856L136.488 40.2273L135.992 38.6433H135.928L136.152 40.3393V47.6993H135V36.4993H136.008L138.712 42.0033L139.112 43.3153H139.144L139.528 41.9873L142.088 36.4993H143.144V47.6993H141.944V40.3393Z" fill="white"/>
<path d="M141.442 55.1262C143.414 55.1262 144.839 55.6742 145.679 56.8066C146.519 57.939 146.921 59.4735 146.921 61.3364V64.113C146.921 66.1587 146.446 67.6932 145.497 68.6797C144.547 69.6657 143.049 70.1775 141.003 70.1775H137.825V80.6985H136.144V55.1262H141.442ZM141.003 68.6431C142.501 68.6431 143.56 68.2776 144.254 67.5836C144.912 66.8893 145.241 65.7936 145.241 64.2225V61.2272C145.241 59.8389 144.985 58.7429 144.437 57.9027C143.889 57.0625 142.866 56.6604 141.442 56.6604H137.825V68.6431H141.003Z" fill="white"/>
<path fill-rule="evenodd" clip-rule="evenodd" d="M136 80.8425H137.969V70.3215H141.003C143.07 70.3215 144.613 69.8045 145.6 68.7796C146.586 67.7554 147.065 66.1774 147.065 64.113V61.3365C147.065 59.4546 146.659 57.8862 145.795 56.7209C144.917 55.5376 143.438 54.9823 141.441 54.9823H136V80.8425ZM136.288 80.5545V55.2703H141.441C143.39 55.2703 144.761 55.811 145.563 56.8925C146.379 57.992 146.777 59.4925 146.777 61.3365V64.113C146.777 66.14 146.306 67.6311 145.393 68.5799C144.48 69.527 143.028 70.0335 141.003 70.0335H137.681V80.5545H136.288ZM137.681 68.7871H141.003C142.522 68.7871 143.625 68.4163 144.356 67.6854L144.359 67.6827C145.053 66.9495 145.385 65.8092 145.385 64.2225V61.2273C145.385 59.8228 145.126 58.6959 144.558 57.8241C143.972 56.9254 142.889 56.5164 141.441 56.5164H137.681V68.7871ZM137.969 68.4991V56.8044H141.441C142.843 56.8044 143.807 57.1998 144.316 57.9814C144.844 58.7901 145.097 59.8552 145.097 61.2273V64.2225C145.097 65.7769 144.771 66.8278 144.151 67.4832C143.494 68.1395 142.478 68.4991 141.003 68.4991H137.969Z" fill="white"/>
<path d="M156.377 55.1262C158.313 55.1262 159.738 55.6376 160.578 56.6604C161.419 57.6835 161.857 59.108 161.857 60.8984V63.1268C161.857 66.0857 160.615 67.8757 158.167 68.4238C159.482 68.716 160.432 69.3006 161.017 70.2137C161.565 71.1273 161.857 72.2596 161.857 73.6479V77.63C161.857 78.178 161.894 78.6893 161.967 79.2375C162.04 79.7855 162.223 80.2968 162.478 80.6985H160.725C160.505 80.2968 160.359 79.8584 160.286 79.3833C160.213 78.9085 160.177 78.3238 160.177 77.63V73.6112C160.177 72.771 160.067 72.0403 159.848 71.4923C159.629 70.9444 159.3 70.4696 158.898 70.1408C158.46 69.812 157.948 69.5928 157.364 69.4465C156.779 69.3369 156.122 69.264 155.391 69.264H152.724V80.6985H151.043V55.1262H156.377ZM155.427 67.7298C156.195 67.7298 156.852 67.6566 157.437 67.547C158.021 67.4374 158.533 67.2181 158.934 66.8893C159.337 66.5609 159.629 66.1224 159.848 65.5744C160.067 65.0264 160.177 64.2958 160.177 63.4556V61.0443C160.177 59.656 159.884 58.5604 159.3 57.793C158.715 57.0259 157.729 56.6604 156.341 56.6604H152.724V67.7298H155.427Z" fill="white"/>
<path fill-rule="evenodd" clip-rule="evenodd" d="M150.899 80.8425H152.868V69.408H155.391C156.11 69.408 156.758 69.4796 157.333 69.5873C157.901 69.7299 158.391 69.9414 158.809 70.2542C159.188 70.5649 159.503 71.0174 159.714 71.5459C159.924 72.0707 160.033 72.7813 160.033 73.6112V77.63C160.033 78.3282 160.069 78.9207 160.144 79.4052C160.219 79.896 160.371 80.3504 160.598 80.7675L160.639 80.8425H162.74L162.599 80.6213C162.356 80.2389 162.18 79.748 162.109 79.2185C162.037 78.6761 162.001 78.1711 162.001 77.63V73.6479C162.001 72.2392 161.704 71.0801 161.14 70.1397L161.138 70.136C160.611 69.3122 159.801 68.7513 158.726 68.4218C159.723 68.1022 160.501 67.5481 161.048 66.7617C161.687 65.8442 162.001 64.6252 162.001 63.1268V60.8984C162.001 59.0854 161.557 57.6251 160.69 56.569C159.811 55.4992 158.335 54.9823 156.377 54.9823H150.899V80.8425ZM151.187 80.5545V55.2703H156.377C158.292 55.2703 159.666 55.7761 160.467 56.7518C161.28 57.7419 161.713 59.1306 161.713 60.8984V63.1268C161.713 64.5874 161.406 65.7428 160.812 66.5972C160.219 67.4489 159.33 68.0159 158.136 68.2834L157.506 68.4244L158.136 68.5644C159.424 68.8506 160.335 69.418 160.894 70.2896C161.426 71.1762 161.713 72.281 161.713 73.6479V77.63C161.713 78.1849 161.75 78.7026 161.824 79.2565C161.887 79.7279 162.028 80.175 162.228 80.5545H160.811C160.622 80.1887 160.495 79.7913 160.429 79.3615C160.357 78.8964 160.321 78.3195 160.321 77.63V73.6112C160.321 72.7608 160.21 72.0101 159.982 71.4389C159.755 70.8725 159.413 70.3762 158.989 70.0294L158.985 70.0255C158.527 69.6825 157.997 69.4566 157.398 69.3069L157.39 69.3048C156.798 69.1937 156.131 69.12 155.391 69.12H152.58V80.5545H151.187ZM152.58 67.8739H155.427C156.204 67.8739 156.871 67.7997 157.463 67.6885M159.025 67.0009C159.451 66.6534 159.756 66.1925 159.982 65.6279C160.21 65.0567 160.321 64.3061 160.321 63.4556V61.0443C160.321 59.6384 160.025 58.5074 159.414 57.7059C158.791 56.888 157.751 56.5164 156.341 56.5164H152.58V67.8739M152.868 67.5859V56.8044H156.341C157.707 56.8044 158.639 57.1638 159.185 57.8804C159.743 58.6135 160.033 59.6737 160.033 61.0443V63.4556C160.033 64.2856 159.924 64.9961 159.714 65.5209C159.502 66.0523 159.222 66.4685 158.843 66.7778C158.464 67.0885 157.976 67.2994 157.41 67.4055C156.834 67.5135 156.185 67.5859 155.427 67.5859H152.868Z" fill="white"/>
<path d="M166.563 61.373C166.563 60.46 166.673 59.5831 166.892 58.7792C167.111 58.0124 167.44 57.318 167.915 56.7337C168.354 56.1857 168.938 55.7107 169.632 55.3818C170.326 55.053 171.166 54.9071 172.153 54.9071C173.139 54.9071 173.979 55.053 174.71 55.3818C175.404 55.7107 175.989 56.1857 176.464 56.7337C176.938 57.318 177.267 58.0124 177.486 58.7792C177.706 59.5831 177.815 60.46 177.815 61.373V74.4517C177.815 75.3649 177.706 76.2418 177.486 77.009C177.267 77.8126 176.938 78.5068 176.464 79.0545C175.989 79.6392 175.404 80.0776 174.71 80.4064C173.979 80.7715 173.139 80.9177 172.153 80.9177C171.166 80.9177 170.326 80.7715 169.632 80.4064C168.938 80.0776 168.354 79.6392 167.915 79.0545C167.44 78.5068 167.111 77.8126 166.892 77.009C166.673 76.2418 166.563 75.3649 166.563 74.4517V61.373ZM168.244 74.5614C168.244 75.9496 168.536 77.082 169.157 77.995C169.742 78.9085 170.728 79.3833 172.153 79.3833C173.578 79.3833 174.6 78.9085 175.221 77.995C175.842 77.082 176.135 75.9496 176.135 74.5614V61.2634C176.135 59.8752 175.842 58.7063 175.221 57.7931C174.6 56.8796 173.578 56.4412 172.153 56.4412C170.728 56.4412 169.742 56.8796 169.157 57.7931C168.536 58.7063 168.244 59.8752 168.244 61.2634V74.5614Z" fill="white"/>
<path fill-rule="evenodd" clip-rule="evenodd" d="M169.568 80.5353C170.29 80.9143 171.155 81.0618 172.153 81.0618C173.152 81.0618 174.016 80.9138 174.773 80.5359C175.483 80.1994 176.084 79.749 176.574 79.1471C177.066 78.5792 177.402 77.8645 177.625 77.0478C177.625 77.0475 177.625 77.0472 177.625 77.0469L177.486 77.009L177.625 77.0486C177.625 77.0483 177.625 77.048 177.625 77.0478C177.848 76.2657 177.959 75.3756 177.959 74.4518V61.3731C177.959 60.4487 177.848 59.5589 177.625 58.7414L177.625 58.7397C177.402 57.9586 177.065 57.2455 176.575 56.643L176.573 56.6394L176.572 56.6394C176.086 56.0785 175.486 55.5903 174.772 55.2517L174.769 55.2505L174.769 55.2505C174.015 54.911 173.153 54.7631 172.153 54.7631C171.153 54.7631 170.29 54.9108 169.57 55.2517C168.856 55.59 168.255 56.0787 167.803 56.6434C167.803 56.6432 167.803 56.6431 167.803 56.6429L167.915 56.7338L167.803 56.6438C167.803 56.6437 167.803 56.6435 167.803 56.6434C167.313 57.2458 166.977 57.9588 166.754 58.7397L166.753 58.7414C166.53 59.5589 166.419 60.4487 166.419 61.3731V74.4518C166.419 75.3756 166.53 76.2657 166.753 77.0477C166.753 77.0474 166.753 77.0472 166.753 77.0469L166.892 77.009L166.754 77.0486C166.753 77.0483 166.753 77.048 166.753 77.0477C166.976 77.8635 167.312 78.5774 167.803 79.1451C167.802 79.1437 167.801 79.1423 167.8 79.141L167.915 79.0546L167.806 79.1489C167.805 79.1476 167.804 79.1464 167.803 79.1451C168.257 79.7492 168.86 80.1995 169.568 80.5353ZM169.568 80.5353C169.567 80.5348 169.566 80.5344 169.565 80.5339L169.632 80.4065L169.57 80.5366C169.57 80.5362 169.569 80.5357 169.568 80.5353ZM172.153 80.7738C171.179 80.7738 170.365 80.6291 169.699 80.279L169.694 80.2762L169.694 80.2763C169.016 79.9554 168.452 79.5306 168.03 78.9682L168.024 78.96L168.024 78.9602C167.567 78.4332 167.246 77.7604 167.031 76.9711L167.03 76.9694L167.03 76.9694C166.816 76.2173 166.707 75.3541 166.707 74.4518V61.3731C166.707 60.4717 166.815 59.6079 167.031 58.818C167.246 58.0658 167.567 57.3904 168.027 56.8246L168.028 56.8237C168.453 56.2925 169.02 55.8314 169.694 55.5119C170.362 55.1952 171.179 55.0511 172.153 55.0511C173.125 55.0511 173.943 55.1948 174.65 55.5125C175.322 55.8315 175.89 56.2924 176.353 56.8263C176.812 57.3918 177.133 58.0666 177.348 58.818C177.563 59.608 177.671 60.4717 177.671 61.3731V74.4518C177.671 75.3541 177.563 76.2173 177.348 76.9694L177.347 76.9711L177.347 76.9711C177.132 77.7604 176.812 78.4333 176.355 78.9603L176.352 78.9637L176.352 78.9637C175.892 79.53 175.325 79.9557 174.648 80.2763L174.646 80.2776L174.646 80.2776C173.941 80.6295 173.126 80.7738 172.153 80.7738ZM172.153 79.2393C170.762 79.2393 169.83 78.7786 169.278 77.9175L169.276 77.9141L169.276 77.9141C168.676 77.0312 168.388 75.9295 168.388 74.5614V61.2635C168.388 59.8945 168.676 58.7565 169.276 57.8741L169.278 57.8708L169.278 57.8707C169.828 57.012 170.759 56.5852 172.153 56.5852C173.547 56.5852 174.517 57.0124 175.102 57.874L175.102 57.8741C175.702 58.7566 175.991 59.8946 175.991 61.2635V74.5614C175.991 75.9294 175.703 77.0312 175.102 77.9141L175.102 77.9141C174.515 78.7781 173.544 79.2393 172.153 79.2393ZM169.037 78.0744C169.655 79.0391 170.694 79.5273 172.153 79.5273C173.612 79.5273 174.686 79.039 175.34 78.0761C175.982 77.1328 176.279 75.9699 176.279 74.5614V61.2635C176.279 59.8559 175.982 58.656 175.34 57.7121C174.684 56.7468 173.608 56.2972 172.153 56.2972C170.698 56.2972 169.657 56.7467 169.037 57.7138C168.396 58.6574 168.1 59.8567 168.1 61.2635V74.5614C168.1 75.9691 168.396 77.1315 169.037 78.0744Z" fill="white"/>
<path d="M187.563 54.9071C188.55 54.9071 189.39 55.053 190.084 55.3818C190.778 55.7107 191.326 56.1857 191.801 56.7337C192.239 57.318 192.568 58.0124 192.787 58.7792C192.97 59.5831 193.08 60.46 193.08 61.373V62.0307C193.08 63.3093 192.787 64.4055 192.203 65.3185C191.582 66.2684 190.741 66.926 189.609 67.2914C190.778 67.6202 191.655 68.2776 192.239 69.1911C192.787 70.1408 193.08 71.2369 193.08 72.4788V74.4517C193.08 75.3649 192.97 76.2418 192.787 77.009C192.568 77.8126 192.239 78.5068 191.801 79.0545C191.326 79.6392 190.778 80.0776 190.084 80.4064C189.39 80.7715 188.55 80.9177 187.563 80.9177C186.577 80.9177 185.773 80.7715 185.079 80.4064C184.385 80.0776 183.801 79.6392 183.362 79.0545C182.887 78.5068 182.558 77.8126 182.376 77.009C182.156 76.2418 182.047 75.3649 182.047 74.4517V72.3325H183.654V74.5614C183.654 75.2554 183.727 75.8763 183.874 76.4609C183.983 77.0453 184.202 77.5566 184.531 77.995C184.86 78.4334 185.262 78.7623 185.736 79.0181C186.212 79.2737 186.832 79.3833 187.527 79.3833C188.951 79.3833 189.938 78.9085 190.522 77.995C191.107 77.082 191.399 75.8762 191.399 74.415V72.4421C191.399 71.1273 191.07 70.0678 190.376 69.3006C189.682 68.5334 188.696 68.1316 187.454 68.1316H186.029V66.5972H187.563C188.696 66.5972 189.646 66.1954 190.34 65.3552C191.034 64.5514 191.399 63.5652 191.399 62.3596V61.4097C191.399 59.9483 191.107 58.7429 190.522 57.8294C189.938 56.9162 188.951 56.4412 187.527 56.4412C186.102 56.4412 185.115 56.8796 184.531 57.7931C183.91 58.7063 183.618 59.8752 183.618 61.2634V62.6517H182.084V61.3364C182.084 60.4234 182.193 59.5464 182.412 58.7792C182.595 58.0124 182.924 57.318 183.362 56.7337C183.801 56.1857 184.385 55.7107 185.079 55.3818C185.773 55.053 186.577 54.9071 187.563 54.9071Z" fill="white"/>
<path fill-rule="evenodd" clip-rule="evenodd" d="M185.015 80.5353C185.736 80.914 186.564 81.0618 187.563 81.0618C188.561 81.0618 189.426 80.9143 190.148 80.5353C190.861 80.1972 191.425 79.7454 191.913 79.1454L191.913 79.1445C192.366 78.5781 192.703 77.8649 192.926 77.0469L192.927 77.0424C193.113 76.2642 193.224 75.3761 193.224 74.4518V72.4788C193.224 71.2134 192.925 70.0923 192.364 69.1192L192.361 69.1134C191.826 68.2778 191.055 67.6508 190.052 67.2833C191.018 66.889 191.76 66.2595 192.323 65.3974L192.324 65.3962C192.926 64.4561 193.224 63.3319 193.224 62.0307V61.3731C193.224 60.4486 193.113 59.561 192.927 58.7473L192.926 58.7396C192.702 57.9586 192.366 57.2477 191.916 56.6474L191.91 56.6392C191.426 56.0808 190.862 55.5914 190.146 55.2517C189.426 54.9108 188.563 54.7631 187.563 54.7631C186.563 54.7631 185.736 54.911 185.017 55.2517C184.303 55.5901 183.702 56.079 183.25 56.6438L183.247 56.6473C182.797 57.2469 182.46 57.9584 182.273 58.7428C182.05 59.5243 181.939 60.4137 181.939 61.3365V62.7957H183.762V61.2635C183.762 59.8946 184.05 58.7566 184.65 57.8741L184.652 57.8707C185.202 57.012 186.133 56.5852 187.527 56.5852C188.917 56.5852 189.85 57.0462 190.401 57.9071C190.966 58.7904 191.255 59.9661 191.255 61.4098V62.3597C191.255 63.5333 190.901 64.4854 190.23 65.2611L190.228 65.2635C189.565 66.0666 188.658 66.4532 187.563 66.4532H185.885V68.2756H187.453C188.663 68.2756 189.607 68.6655 190.269 69.3973C190.932 70.13 191.255 71.1506 191.255 72.4422V74.4151C191.255 75.8585 190.966 77.0346 190.401 77.9175C189.85 78.7786 188.917 79.2393 187.527 79.2393C186.845 79.2393 186.251 79.1313 185.805 78.8914C185.346 78.6443 184.961 78.3286 184.646 77.9087C184.332 77.4894 184.121 76.999 184.015 76.4344L184.013 76.426C183.87 75.854 183.798 75.2451 183.798 74.5614V72.1886H181.903V74.4518C181.903 75.3744 182.013 76.2634 182.236 77.0448C182.423 77.8637 182.759 78.5779 183.25 79.1451C183.704 79.7492 184.307 80.1995 185.015 80.5353ZM187.563 80.7738C186.591 80.7738 185.812 80.6295 185.146 80.279L185.141 80.2762C184.463 79.9553 183.899 79.5306 183.477 78.9682L183.471 78.96C183.014 78.4332 182.694 77.7619 182.516 76.9771L182.514 76.9694C182.299 76.2172 182.191 75.3541 182.191 74.4518V72.4766H183.51V74.5614C183.51 75.2641 183.584 75.8956 183.733 76.4918C183.846 77.0942 184.074 77.625 184.416 78.0815C184.759 78.5383 185.177 78.8803 185.668 79.145C186.172 79.4162 186.82 79.5273 187.527 79.5273C188.986 79.5273 190.026 79.0385 190.644 78.0727C191.247 77.1295 191.543 75.8941 191.543 74.4151V72.4422C191.543 71.1041 191.208 70.0057 190.483 69.2041C189.757 68.4014 188.729 67.9876 187.453 67.9876H186.173V66.7412H187.563C188.733 66.7412 189.725 66.3246 190.449 65.4482C191.167 64.6165 191.543 63.5966 191.543 62.3597V61.4098C191.543 59.9305 191.247 58.6955 190.644 57.7519C190.026 56.7864 188.986 56.2972 187.527 56.2972C186.072 56.2972 185.03 56.7467 184.411 57.7138C183.77 58.6574 183.474 59.8567 183.474 61.2635V62.5077H182.227V61.3365C182.227 60.4343 182.336 59.571 182.551 58.8188L182.552 58.8126C182.73 58.0654 183.05 57.3898 183.476 56.822C183.901 56.2915 184.467 55.831 185.141 55.5119C185.81 55.195 186.591 55.0511 187.563 55.0511C188.536 55.0511 189.354 55.1952 190.022 55.5119C190.692 55.8293 191.224 56.2884 191.689 56.8242C192.113 57.3906 192.433 58.0658 192.648 58.8151C192.828 59.6081 192.936 60.4729 192.936 61.3731V62.0307C192.936 63.2866 192.649 64.3545 192.082 65.2404C191.479 66.1626 190.665 66.7993 189.565 67.1544L189.111 67.3009L189.57 67.4301C190.705 67.7494 191.552 68.385 192.116 69.2659C192.649 70.1917 192.936 71.2617 192.936 72.4788V74.4518C192.936 75.3529 192.828 76.2177 192.648 76.9734C192.432 77.7614 192.111 78.4357 191.689 78.9642C191.227 79.5325 190.696 79.9571 190.022 80.2763L190.017 80.2789C189.351 80.629 188.537 80.7738 187.563 80.7738Z" fill="white"/>
<path d="M210.975 84.2424V80.6986H198.773V84.2424H197.129V79.1643H198.882C199.394 78.6166 199.723 78.0319 199.869 77.3381C200.015 76.6437 200.124 75.9131 200.161 75.0729L201.184 55.1264H210.536V79.1643H212.655V84.2424H210.975ZM201.805 75.0729C201.768 75.9497 201.659 76.7165 201.549 77.3743C201.403 78.0685 201.074 78.6528 200.599 79.1643H208.819V56.6606H202.755L201.805 75.0729Z" fill="white"/>
<path fill-rule="evenodd" clip-rule="evenodd" d="M196.985 84.3865H198.917V80.8427H210.831V84.3865H212.799V79.0203H210.68V54.9824H201.047L200.017 75.0656L200.017 75.0667C199.981 75.8975 199.873 76.6202 199.728 77.3085C199.592 77.9539 199.291 78.5023 198.819 79.0203H196.985V84.3865ZM197.273 84.0985V79.3084H198.945L198.988 79.2626C199.514 78.6987 199.857 78.0911 200.01 77.3678C200.157 76.6674 200.268 75.929 200.305 75.0798C200.305 75.0796 200.305 75.08 200.305 75.0798L201.321 55.2704H210.392V79.3084H212.511V84.0985H211.119V80.5547H198.629V84.0985H197.273ZM200.269 79.3084H208.963V56.5166H202.618L201.661 75.0655L201.661 75.0669C201.625 75.9339 201.517 76.6932 201.408 77.3476C201.267 78.012 200.952 78.5724 200.494 79.0664L200.269 79.3084ZM200.915 79.0203C201.293 78.5502 201.561 78.0189 201.69 77.404L201.692 77.398C201.802 76.7378 201.912 75.9647 201.949 75.0797C201.949 75.0795 201.949 75.0799 201.949 75.0797L202.892 56.8046H208.675V79.0203H200.915Z" fill="white"/>
<path d="M216.74 61.373C216.74 60.46 216.85 59.5831 217.069 58.7792C217.289 58.0124 217.617 57.318 218.092 56.7337C218.531 56.1857 219.115 55.7107 219.81 55.3818C220.503 55.053 221.344 54.9071 222.33 54.9071C223.316 54.9071 224.157 55.053 224.887 55.3818C225.581 55.7107 226.166 56.1857 226.641 56.7337C227.116 57.318 227.444 58.0124 227.664 58.7792C227.883 59.5831 227.993 60.46 227.993 61.373V74.4517C227.993 75.3649 227.883 76.2418 227.664 77.009C227.444 77.8126 227.116 78.5068 226.641 79.0545C226.166 79.6392 225.581 80.0776 224.887 80.4064C224.157 80.7715 223.316 80.9177 222.33 80.9177C221.344 80.9177 220.503 80.7715 219.81 80.4064C219.115 80.0776 218.531 79.6392 218.092 79.0545C217.617 78.5068 217.289 77.8126 217.069 77.009C216.85 76.2418 216.74 75.3649 216.74 74.4517V61.373ZM218.421 74.5614C218.421 75.9496 218.713 77.082 219.334 77.995C219.919 78.9085 220.905 79.3833 222.33 79.3833C223.755 79.3833 224.778 78.9085 225.399 77.995C226.02 77.082 226.312 75.9496 226.312 74.5614V61.2634C226.312 59.8752 226.02 58.7063 225.399 57.7931C224.778 56.8796 223.755 56.4412 222.33 56.4412C220.905 56.4412 219.919 56.8796 219.334 57.7931C218.713 58.7063 218.421 59.8752 218.421 61.2634V74.5614Z" fill="white"/>
<path fill-rule="evenodd" clip-rule="evenodd" d="M219.745 80.5353C220.467 80.9143 221.332 81.0618 222.33 81.0618C223.33 81.0618 224.194 80.9138 224.95 80.5359C225.66 80.1994 226.262 79.749 226.752 79.1471C227.243 78.5792 227.58 77.8645 227.803 77.0478C228.026 76.2657 228.137 75.3756 228.137 74.4518V61.3731C228.137 60.4487 228.026 59.5589 227.803 58.7414L227.802 58.7397C227.579 57.9586 227.242 57.2455 226.753 56.643L226.75 56.6394L226.75 56.6394C226.264 56.0785 225.664 55.5903 224.949 55.2517L224.947 55.2505L224.947 55.2505C224.192 54.911 223.331 54.7631 222.33 54.7631C221.331 54.7631 220.468 54.9108 219.748 55.2517C219.034 55.59 218.432 56.0788 217.981 56.6434C217.491 57.2458 217.154 57.9588 216.931 58.7397L216.931 58.7414C216.708 59.5589 216.597 60.4487 216.597 61.3731V74.4518C216.597 75.3756 216.707 76.2657 216.931 77.0477C217.154 77.8635 217.489 78.5774 217.981 79.145C218.435 79.7492 219.037 80.1995 219.745 80.5353ZM222.33 80.7738C221.357 80.7738 220.542 80.6291 219.877 80.279L219.871 80.2762L219.871 80.2763C219.194 79.9554 218.63 79.5306 218.208 78.9682L218.202 78.96L218.201 78.9602C217.744 78.4332 217.424 77.7604 217.209 76.9711L217.208 76.9694L217.208 76.9694C216.993 76.2173 216.885 75.3541 216.885 74.4518V61.3731C216.885 60.4717 216.993 59.6079 217.208 58.818C217.423 58.0658 217.744 57.3904 218.204 56.8246L218.205 56.8237C218.63 56.2925 219.197 55.8314 219.871 55.5119L219.871 55.5119C220.54 55.1952 221.357 55.0511 222.33 55.0511C223.302 55.0511 224.121 55.1948 224.827 55.5125C225.499 55.8314 226.068 56.2924 226.531 56.8263C226.99 57.3918 227.31 58.0667 227.525 58.818C227.741 59.608 227.849 60.4717 227.849 61.3731V74.4518C227.849 75.3541 227.74 76.2173 227.525 76.9694L227.525 76.9711L227.525 76.9711C227.31 77.7604 226.989 78.4333 226.532 78.9603L226.529 78.9637L226.529 78.9638C226.069 79.53 225.503 79.9557 224.826 80.2763L224.823 80.2776L224.823 80.2776C224.119 80.6295 223.303 80.7738 222.33 80.7738ZM222.33 79.2393C220.94 79.2393 220.007 78.7786 219.456 77.9175L219.454 77.9141L219.454 77.9141C218.853 77.0312 218.565 75.9295 218.565 74.5614V61.2635C218.565 59.8945 218.854 58.7565 219.454 57.8741L219.456 57.8708L219.456 57.8707C220.006 57.012 220.936 56.5852 222.33 56.5852C223.725 56.5852 224.694 57.0124 225.28 57.874L225.28 57.8741C225.88 58.7566 226.168 59.8946 226.168 61.2635V74.5614C226.168 75.9294 225.88 77.0312 225.28 77.9141L225.28 77.9141C224.692 78.7781 223.721 79.2393 222.33 79.2393ZM219.214 78.0744C219.833 79.0391 220.872 79.5273 222.33 79.5273C223.789 79.5273 224.863 79.039 225.518 78.076C226.159 77.1328 226.456 75.9699 226.456 74.5614V61.2635C226.456 59.8559 226.16 58.656 225.518 57.7121C224.862 56.7468 223.786 56.2972 222.33 56.2972C220.875 56.2972 219.834 56.7467 219.214 57.7138C218.573 58.6574 218.277 59.8567 218.277 61.2635V74.5614C218.277 75.969 218.574 77.1315 219.214 78.0744Z" fill="white"/>
<path d="M237.595 55.1262C239.567 55.1262 240.992 55.6742 241.832 56.8066C242.672 57.939 243.074 59.4735 243.074 61.3364V64.113C243.074 66.1587 242.599 67.6932 241.65 68.6797C240.7 69.6657 239.202 70.1775 237.156 70.1775H233.978V80.6985H232.297V55.1262H237.595ZM237.156 68.6431C238.654 68.6431 239.713 68.2776 240.407 67.5836C241.065 66.8893 241.394 65.7936 241.394 64.2225V61.2272C241.394 59.8389 241.138 58.7429 240.59 57.9027C240.042 57.0625 239.019 56.6604 237.595 56.6604H233.978V68.6431H237.156Z" fill="white"/>
<path fill-rule="evenodd" clip-rule="evenodd" d="M232.153 80.8425H234.122V70.3215H237.156C239.223 70.3215 240.766 69.8045 241.753 68.7796C242.739 67.7554 243.218 66.1774 243.218 64.113V61.3365C243.218 59.4546 242.812 57.8862 241.948 56.7209C241.07 55.5376 239.591 54.9823 237.595 54.9823H232.153V80.8425ZM232.441 80.5545V55.2703H237.595C239.543 55.2703 240.914 55.811 241.717 56.8925C242.532 57.992 242.93 59.4925 242.93 61.3365V64.113C242.93 66.14 242.459 67.6311 241.546 68.5799C240.633 69.527 239.181 70.0335 237.156 70.0335H233.834V80.5545H232.441ZM233.834 68.7871H237.156C238.675 68.7871 239.778 68.4163 240.509 67.6854L240.512 67.6827C241.206 66.9495 241.538 65.8092 241.538 64.2225V61.2273C241.538 59.8228 241.279 58.6959 240.711 57.8241C240.125 56.9254 239.042 56.5164 237.595 56.5164H233.834V68.7871ZM234.122 68.4991V56.8044H237.595C238.996 56.8044 239.96 57.1997 240.47 57.9813C240.997 58.79 241.25 59.8552 241.25 61.2273V64.2225C241.25 65.7769 240.924 66.8278 240.304 67.4832C239.647 68.1395 238.631 68.4991 237.156 68.4991H234.122Z" fill="white"/>
<path d="M247.013 61.373C247.013 60.46 247.123 59.5831 247.342 58.7792C247.561 58.0124 247.89 57.318 248.365 56.7337C248.804 56.1857 249.388 55.7107 250.082 55.3818C250.776 55.053 251.616 54.9071 252.603 54.9071C253.589 54.9071 254.43 55.053 255.16 55.3818C255.854 55.7107 256.439 56.1857 256.914 56.7337C257.389 57.318 257.717 58.0124 257.937 58.7792C258.156 59.5831 258.265 60.46 258.265 61.373V74.4517C258.265 75.3649 258.156 76.2418 257.937 77.009C257.717 77.8126 257.389 78.5068 256.914 79.0545C256.439 79.6392 255.854 80.0776 255.16 80.4064C254.43 80.7715 253.589 80.9177 252.603 80.9177C251.616 80.9177 250.776 80.7715 250.082 80.4064C249.388 80.0776 248.804 79.6392 248.365 79.0545C247.89 78.5068 247.561 77.8126 247.342 77.009C247.123 76.2418 247.013 75.3649 247.013 74.4517V61.373ZM248.694 74.5614C248.694 75.9496 248.986 77.082 249.607 77.995C250.192 78.9085 251.178 79.3833 252.603 79.3833C254.028 79.3833 255.051 78.9085 255.672 77.995C256.293 77.082 256.585 75.9496 256.585 74.5614V61.2634C256.585 59.8752 256.293 58.7063 255.672 57.7931C255.051 56.8796 254.028 56.4412 252.603 56.4412C251.178 56.4412 250.192 56.8796 249.607 57.7931C248.986 58.7063 248.694 59.8752 248.694 61.2634V74.5614Z" fill="white"/>
<path fill-rule="evenodd" clip-rule="evenodd" d="M250.018 80.5353C250.74 80.9143 251.605 81.0618 252.603 81.0618C253.603 81.0618 254.467 80.9138 255.223 80.5359C255.933 80.1994 256.535 79.749 257.024 79.1471C257.516 78.5792 257.853 77.8645 258.076 77.0478C258.076 77.0475 258.076 77.0472 258.076 77.0469L257.937 77.009L258.075 77.0486C258.075 77.0483 258.075 77.048 258.076 77.0478C258.299 76.2657 258.41 75.3756 258.41 74.4518V61.3731C258.41 60.4487 258.299 59.5589 258.076 58.7414L258.075 58.7397C257.852 57.9586 257.515 57.2455 257.026 56.643L257.023 56.6394L257.023 56.6394C256.537 56.0785 255.936 55.5903 255.222 55.2517L255.22 55.2505L255.22 55.2505C254.465 54.911 253.604 54.7631 252.603 54.7631C251.604 54.7631 250.74 54.9108 250.021 55.2517C249.307 55.59 248.705 56.0787 248.254 56.6434C248.254 56.6432 248.254 56.6431 248.254 56.6429L248.366 56.7338L248.253 56.6438C248.253 56.6437 248.253 56.6435 248.254 56.6434C247.764 57.2458 247.427 57.9588 247.204 58.7397L247.204 58.7414C246.981 59.5589 246.87 60.4487 246.87 61.3731V74.4518C246.87 75.3756 246.98 76.2657 247.204 77.0477C247.204 77.0474 247.204 77.0472 247.204 77.0469L247.342 77.009L247.204 77.0486C247.204 77.0483 247.204 77.048 247.204 77.0477C247.426 77.8634 247.762 78.5774 248.254 79.1451C248.252 79.1437 248.251 79.1423 248.25 79.141L248.366 79.0546L248.257 79.1489C248.256 79.1476 248.255 79.1463 248.254 79.1451C248.708 79.7492 249.31 80.1995 250.018 80.5353ZM250.018 80.5353C250.017 80.5348 250.016 80.5344 250.016 80.5339L250.083 80.4065L250.021 80.5366C250.02 80.5362 250.019 80.5357 250.018 80.5353ZM252.603 80.7738C251.629 80.7738 250.815 80.6291 250.15 80.279L250.144 80.2762L250.144 80.2763C249.467 79.9554 248.903 79.5306 248.481 78.9682L248.475 78.96L248.474 78.9602C248.017 78.4332 247.697 77.7604 247.481 76.9711L247.481 76.9694L247.481 76.9694C247.266 76.2173 247.158 75.3541 247.158 74.4518V61.3731C247.158 60.4717 247.266 59.6079 247.481 58.818C247.696 58.0658 248.017 57.3904 248.477 56.8246L248.478 56.8237C248.903 56.2925 249.47 55.8314 250.144 55.5119C250.813 55.1952 251.63 55.0511 252.603 55.0511C253.575 55.0511 254.393 55.1948 255.1 55.5125C255.772 55.8315 256.34 56.2924 256.804 56.8264C257.263 57.3918 257.583 58.0666 257.798 58.818C258.013 59.6079 258.122 60.4717 258.122 61.3731V74.4518C258.122 75.3541 258.013 76.2173 257.798 76.9694L257.798 76.9711L257.798 76.9711C257.583 77.7604 257.262 78.4333 256.805 78.9603L256.802 78.9637L256.802 78.9637C256.342 79.53 255.775 79.9557 255.099 80.2763L255.096 80.2776L255.096 80.2776C254.392 80.6295 253.576 80.7738 252.603 80.7738ZM252.603 79.2393C251.213 79.2393 250.28 78.7786 249.729 77.9175L249.727 77.9141L249.727 77.9141C249.126 77.0312 248.838 75.9295 248.838 74.5614V61.2635C248.838 59.8945 249.127 58.7565 249.727 57.8741L249.729 57.8708L249.729 57.8707C250.278 57.012 251.209 56.5852 252.603 56.5852C253.998 56.5852 254.967 57.0124 255.553 57.874L255.553 57.8741C256.153 58.7566 256.441 59.8946 256.441 61.2635V74.5614C256.441 75.9294 256.153 77.0312 255.553 77.9141L255.553 77.9141C254.965 78.7781 253.994 79.2393 252.603 79.2393ZM249.487 78.0744C250.106 79.0391 251.145 79.5273 252.603 79.5273C254.062 79.5273 255.136 79.039 255.791 78.076C256.432 77.1328 256.729 75.9699 256.729 74.5614V61.2635C256.729 59.8559 256.433 58.656 255.791 57.7121C255.135 56.7468 254.058 56.2972 252.603 56.2972C251.148 56.2972 250.107 56.7467 249.487 57.7138C248.846 58.6574 248.55 59.8567 248.55 61.2635V74.5614C248.55 75.969 248.847 77.1315 249.487 78.0744Z" fill="white"/>
<path d="M267.941 55.1262C269.877 55.1262 271.229 55.6009 271.996 56.5145C272.763 57.4276 273.165 58.7792 273.165 60.5696V62.0307C273.165 63.4189 272.946 64.5513 272.471 65.3914C271.996 66.232 271.083 66.8164 269.804 67.0723C271.192 67.3277 272.179 67.9491 272.763 68.8989C273.348 69.8849 273.64 71.0906 273.64 72.5518V74.7803C273.64 76.6435 273.202 78.0684 272.325 79.1278C271.448 80.1872 270.023 80.6985 268.051 80.6985H262.571V55.1262H267.941ZM267.101 66.4146C267.868 66.4146 268.525 66.3416 269.073 66.232C269.621 66.1224 270.06 65.9032 270.425 65.5744C270.791 65.2818 271.046 64.8801 271.229 64.3321C271.411 63.8206 271.485 63.1631 271.485 62.3596V60.7155C271.485 59.3639 271.229 58.3774 270.717 57.6834C270.206 56.9892 269.256 56.6604 267.904 56.6604H264.251V66.4146H267.101ZM268.051 79.1641C269.476 79.1641 270.462 78.7989 271.083 78.0317C271.667 77.2645 271.959 76.1683 271.959 74.7438V72.4421C271.959 70.7985 271.594 69.6295 270.827 68.9352C270.06 68.2776 268.928 67.9491 267.43 67.9491H264.251V79.1641H268.051Z" fill="white"/>
<path fill-rule="evenodd" clip-rule="evenodd" d="M262.427 80.8425H268.051C270.045 80.8425 271.521 80.3253 272.436 79.2197C273.34 78.127 273.784 76.666 273.784 74.7803V72.5519C273.784 71.0714 273.488 69.8388 272.887 68.8255L272.886 68.8235C272.363 67.9738 271.535 67.3828 270.418 67.0666C271.426 66.7575 272.173 66.2116 272.597 65.4623C273.089 64.5918 273.309 63.4314 273.309 62.0307V60.5696C273.309 58.7602 272.903 57.3704 272.106 56.4219C271.299 55.4607 269.895 54.9823 267.941 54.9823H262.427V80.8425ZM262.715 80.5545V55.2703H267.941C269.859 55.2703 271.159 55.7411 271.886 56.6071C272.623 57.4848 273.021 58.7983 273.021 60.5696V62.0307C273.021 63.4066 272.803 64.5109 272.346 65.3206C271.897 66.114 271.028 66.6807 269.776 66.9311L269.041 67.0782L269.778 67.2139C271.135 67.4637 272.081 68.0665 272.64 68.9734C273.208 69.932 273.496 71.1105 273.496 72.5519V74.7803C273.496 76.6211 273.063 78.0098 272.214 79.0361C271.375 80.0491 270.001 80.5545 268.051 80.5545H262.715ZM264.107 79.3082H268.051C269.499 79.3082 270.535 78.9366 271.195 78.1224L271.198 78.1191C271.808 77.3173 272.103 76.1855 272.103 74.7439V72.4422C272.103 70.7832 271.736 69.5634 270.924 68.8285L270.921 68.8259C270.117 68.1373 268.946 67.8051 267.43 67.8051H264.107V79.3082ZM264.395 79.0202V68.0931H267.43C268.908 68.0931 270.001 68.4176 270.732 69.0434C271.453 69.6972 271.815 70.815 271.815 72.4422V74.7439C271.815 76.1502 271.527 77.2102 270.97 77.9428C270.386 78.6619 269.452 79.0202 268.051 79.0202H264.395ZM264.107 66.5587H267.101C267.877 66.5587 268.544 66.4848 269.102 66.3733C269.672 66.2593 270.133 66.03 270.519 65.6842C270.909 65.3706 271.177 64.9439 271.365 64.3791C271.555 63.8449 271.629 63.1685 271.629 62.3597V60.7155C271.629 59.3484 271.37 58.3268 270.833 57.5981C270.281 56.8483 269.273 56.5164 267.904 56.5164H264.107V66.5587ZM264.395 66.2707V56.8044H267.904C269.24 56.8044 270.131 57.1301 270.601 57.7689C271.087 58.4282 271.341 59.3795 271.341 60.7155V62.3597C271.341 63.157 271.268 63.7953 271.093 64.2838L271.092 64.2866C270.916 64.8156 270.674 65.1911 270.335 65.462L270.329 65.4672C269.984 65.7775 269.57 65.9859 269.045 66.0909C268.507 66.1985 267.859 66.2707 267.101 66.2707H264.395Z" fill="white"/>
<path d="M282.73 65.6473C284.813 65.6473 286.311 66.1586 287.261 67.1452C288.21 68.1316 288.685 69.6657 288.685 71.7116V74.488C288.685 75.4016 288.576 76.2418 288.393 77.009C288.174 77.7759 287.845 78.4335 287.406 78.9816C286.968 79.5296 286.42 79.968 285.726 80.2601C285.032 80.5522 284.155 80.6985 283.169 80.6985H277.908V55.1262H279.589V65.6473H282.73ZM283.169 79.1641C284.594 79.1641 285.616 78.7623 286.164 77.9221C286.713 77.082 287.005 75.9858 287.005 74.5976V71.602C287.005 70.0312 286.676 68.8989 285.982 68.2045C285.288 67.5106 284.228 67.1819 282.73 67.1819H279.589V79.1641H283.169Z" fill="white"/>
<path fill-rule="evenodd" clip-rule="evenodd" d="M277.764 80.8425H283.169C284.168 80.8425 285.065 80.6946 285.782 80.3929C286.5 80.0907 287.067 79.6369 287.519 79.0716C287.971 78.5067 288.308 77.8314 288.531 77.0486L288.533 77.0424C288.718 76.2647 288.829 75.4132 288.829 74.488V71.7116C288.829 69.647 288.35 68.0695 287.364 67.0453C286.377 66.0197 284.834 65.5033 282.73 65.5033H279.733V54.9823H277.764V80.8425ZM278.052 80.5545V55.2703H279.445V65.7913H282.73C284.792 65.7913 286.245 66.2977 287.157 67.2451C288.07 68.1938 288.541 69.6845 288.541 71.7116V74.488C288.541 75.3887 288.433 76.2167 288.254 76.9725C288.039 77.7223 287.718 78.3611 287.294 78.8917C286.869 79.4224 286.341 79.8453 285.67 80.1274C284.999 80.4099 284.142 80.5545 283.169 80.5545H278.052ZM279.445 79.3082H283.169C284.617 79.3082 285.699 78.8995 286.285 78.0008C286.852 77.1313 287.149 76.0057 287.149 74.5976V71.602C287.149 70.017 286.818 68.8373 286.084 68.1028C285.351 67.3703 284.246 67.0379 282.73 67.0379H279.445V79.3082ZM279.733 79.0202V67.3259H282.73C284.211 67.3259 285.224 67.6512 285.88 68.3064C286.534 68.9606 286.861 70.0455 286.861 71.602V74.5976C286.861 75.9661 286.573 77.0328 286.044 77.8435C285.534 78.6251 284.571 79.0202 283.169 79.0202H279.733Z" fill="white"/>
<path d="M301.611 66.9626V68.4968H294.634V79.1641H303.036V80.6985H292.953V55.1262H303.036V56.6604H294.634V66.9626H301.611Z" fill="white"/>
<path fill-rule="evenodd" clip-rule="evenodd" d="M292.809 80.8425H303.18V79.0202H294.778V68.6409H301.755V66.8187H294.778V56.8044H303.18V54.9823H292.809V80.8425ZM293.097 80.5545V55.2703H302.892V56.5164H294.49V67.1067H301.467V68.3529H294.49V79.3082H302.892V80.5545H293.097Z" fill="white"/>
</svg>
