<svg width="304" height="118" viewBox="0 0 304 118" fill="none" xmlns="http://www.w3.org/2000/svg">
<path fill-rule="evenodd" clip-rule="evenodd" d="M71.1984 36.7688C71.1984 35.452 71.6774 34.4138 72.3361 33.7551C73.9464 32.1425 75.967 32.6809 77.6749 34.4376C78.9297 35.7283 79.3371 38.8889 78.8467 40.1289C78.4361 41.1663 77.7719 41.7888 76.7753 42.2696C75.203 43.0289 73.9481 41.9155 72.9285 40.7964C71.6894 39.4358 71.1984 38.5771 71.1984 36.7688ZM55.0147 108.261L52.2714 105.476C55.0091 104.213 62.2793 99.069 64.3767 99.0473C63.9289 100.433 56.4881 107.122 55.0147 108.261ZM30.339 110.046C30.2262 109.924 30.1306 109.942 30.0266 109.889C31.3954 109.51 32.0501 109.619 32.9984 110.015C35.1058 110.897 35.1332 110.624 35.1648 111.477L30.339 110.046ZM67.7058 93.0886C66.2008 93.6622 66.1319 93.9616 65.8609 95.6078C63.7699 96.3845 58.725 96.1198 56.5872 96.0879C53.4667 96.0409 50.3137 96.4143 48.1467 93.8285C50.6057 93.0579 54.9256 92.5567 57.6575 92.1281C64.2349 91.0959 77.5404 87.8218 84.2438 91.2203C81.6996 91.6905 80.5388 90.824 75.8004 92.5918C71.6538 94.1398 70.0143 96.0531 66.5676 97.8878C66.8838 95.3204 68.3328 95.4408 67.7058 93.0886ZM42.3116 113.142C41.1964 112.902 24.3618 103.579 23.0614 102.314C25.3347 101.406 27.2596 101.651 28.91 102.17L33.7231 104.12C35.1861 104.906 40.8264 111.294 42.3116 113.142ZM51.3585 115.459C47.1228 116.838 47.9138 116.956 44.9002 113.634C41.6181 110.016 29.9742 97.8015 28.7361 95.812C31.5526 95.5273 32.4856 96.2056 35.059 98.0225C36.9609 99.3656 38.8246 100.969 40.8732 102.564C45.229 105.955 48.1859 111.04 51.3585 115.459ZM46.6446 101.241C49.5284 104.551 52.3942 108.398 55.1082 109.976C58.4232 108.483 71.9778 90.6031 84.8809 93.0243C86.2965 93.2906 88.1061 93.5228 89.5898 94.2455C91.165 95.0112 92.4503 96.393 94.3604 95.8614C93.2116 92.9711 85.7679 89.797 83.9273 89.1481C83.0296 88.8306 82.0211 88.6004 80.9325 88.4417C80.9366 88.4289 80.9407 88.4151 80.943 88.4008C82.0099 82.5674 83.1683 77.337 83.2131 71.7646C84.8514 71.8108 85.8353 71.7418 86.8573 70.7631C87.9473 69.7196 88.1081 69.1806 88.1643 67.4085L88.6268 53.9656C88.6628 52.1096 88.5871 51.7139 87.5958 50.5331C83.6801 45.868 72.6308 44.5514 66.5518 48.2076C62.0458 50.9176 63.7846 53.3385 61.4922 57.0667C61.0796 57.7373 60.0497 59.0717 59.4457 59.4831C58.9264 58.7397 57.3158 58.266 57.0721 57.8504C57.0721 55.6823 57.3091 51.5655 57.0181 49.625C56.5493 46.4969 52.7328 44.2554 49.565 47.1012C49.0065 47.603 49.0153 47.5548 48.6412 48.2965C47.7759 50.0136 48.0179 56.1578 48.2058 57.9911C45.7024 56.7031 44.1498 54.8102 42.6477 52.4726C41.8852 51.2864 41.6979 49.4888 40.8802 48.6109C40.2697 47.956 38.5668 47.0644 37.2823 46.7474C37.2204 43.4321 37.3575 40.076 37.2772 36.7626C37.1229 30.4297 27.4301 30.1839 27.2916 36.9034C27.2244 40.1552 27.2919 43.4859 27.2919 46.7464C26.0467 46.9703 24.5803 47.7328 23.8745 48.3909C22.7561 49.4327 22.7984 50.431 22.7282 52.3536C22.6202 55.3193 22.747 58.6655 23.5784 61.4061C23.9633 62.6754 24.4802 63.9372 25.0986 64.9431C25.6866 65.9 25.9704 65.9589 25.8651 66.6589L24.2687 72.6942C24.0167 73.5275 23.1623 75.9001 23.4428 76.5697C23.7818 77.12 26.717 77.636 27.3037 77.7102L28.4232 94.3251C27.9029 94.4966 27.4004 94.7833 26.926 95.2146L27.4655 96.8036C27.509 96.8702 28.6435 98.0967 28.8063 98.2689C29.8373 99.3586 30.7319 100.218 31.6322 101.537L30.9271 101.398C30.8471 101.379 30.6936 101.349 30.5986 101.324C28.7441 100.831 23.5083 98.3022 21.2734 102.492C22.0827 104.655 27.9553 106.641 29.8972 108.139C28.4544 108.959 27.9179 108.918 27.1745 110.196C27.6289 111.816 30.1038 111.373 33.502 112.271C36.8471 113.154 40.5957 114.276 43.7332 115.897C45.0023 116.553 45.5058 117.229 46.8934 117.676C49.082 118.383 51.8242 116.495 54.7827 116.461C75.1043 116.238 92.9334 105.615 103.126 87.7853C106.325 82.1903 108.755 73.6712 109.717 67.1206C110.016 65.086 110.455 53.921 108.769 51.9232C107.487 52.7158 107.963 53.4282 108.15 54.9558C108.297 56.1712 108.32 57.1897 108.412 58.3864C108.993 65.9353 107.698 71.3479 105.688 78.0989C103.387 85.8247 98.1634 94.4098 90.3118 101.441C81.6676 109.182 71.8307 112.976 61.1911 114.474C53.3023 115.585 53.5992 115.946 48.8196 109.356C45.4881 104.765 42.0933 100.253 38.8586 95.6575C39.6254 95.6647 40.4004 95.9034 41.1795 96.3141L46.6446 101.241ZM79.731 88.2984C78.5573 88.1871 77.3107 88.1462 76.0228 88.16C76.322 84.9065 76.6371 73.4506 76.3805 72.6574C75.1727 72.3626 74.4926 72.7477 74.5034 73.8696L74.5835 88.1965C73.309 88.2476 72.0071 88.3456 70.7078 88.4753C67.1059 70.2908 69.554 72.4228 68.9479 55.7104L66.7842 55.7328C66.8221 56.671 67.0433 58.3853 66.6801 59.1637C66.3341 59.9073 64.5546 61.8373 64.0093 62.2461C62.7454 63.195 61.8222 63.7406 60.1593 64.0842L59.9022 60.7943C60.7544 60.2983 61.378 59.4501 62.0265 58.5761C65.2128 54.2816 63.2878 52.3659 66.1906 50.0949C71.3185 46.0833 80.5555 47.2602 85.3538 51.2154C86.4043 52.0816 86.7176 52.877 86.6741 54.1512L86.9011 65.7164C86.7735 68.8068 87.1469 70.4443 83.2371 70.47L83.5661 55.7278L82.2172 55.6949C82.2767 60.9652 81.4742 66.5811 81.2764 71.8702C81.059 77.672 80.7992 82.4767 79.6598 88.1831C79.6536 88.2137 79.6808 88.2543 79.731 88.2984ZM69.4915 88.6059C65.5982 89.0525 61.8097 89.7512 58.9316 90.3184C58.36 90.431 57.2215 90.6136 55.8487 90.8396C56.0819 89.4525 56.1019 88.0673 56.181 86.5661C56.239 85.4722 56.343 81.9318 56.6063 81.1175C57.6729 80.929 58.6935 80.6772 59.4971 80.2852C59.5965 79.3764 58.5997 76.1248 58.3448 74.9662C62.3409 74.7782 60.1076 68.3992 60.3245 65.4393C61.1012 65.1553 61.6652 65.084 62.4324 64.7537C64.5871 63.8259 65.4451 62.6841 66.9174 61.2001C66.8695 64.3578 67.1171 67.59 67.1027 70.7485C67.0895 73.6914 67.4084 76.6745 67.8497 79.5198L69.4915 88.6059ZM54.5641 91.0523C54.183 91.1163 53.7931 91.1829 53.3998 91.2507L53.2835 81.8282L55.1889 81.3472L54.5641 91.0523ZM51.9531 91.5079C51.5274 91.5859 51.1057 91.6654 50.6957 91.7461L50.0448 81.3239L51.9757 81.7578C51.8302 84.1717 51.9695 88.6924 51.9555 91.3802C51.9552 91.4248 51.9542 91.4676 51.9531 91.5079ZM49.4314 92.0059C47.5945 92.403 46.2126 92.8068 46.1186 93.1496C46.502 96.7559 51.6206 97.2063 53.6833 97.54C56.0063 97.9162 61.1805 97.137 62.9158 97.7858L51.217 104.484C48.0276 101.062 40.474 90.1966 36.8306 94.8853C37.1391 96.2287 38.6503 97.8705 39.6533 99.3566C39.4453 99.2654 39.1167 99.1216 38.7825 98.9285C38.5028 98.7671 38.283 98.6254 38.0112 98.4381C36.8162 97.6128 34.9497 96.0178 32.9391 95.0147C33.1843 94.1222 32.9463 91.9708 32.9502 91.4451C32.9809 87.5074 32.7771 81.5351 32.9703 78.143L35.872 79.0215L34.8492 96.011C35.3877 96.056 35.5856 96.7489 35.9696 96.5964L37.3274 77.774L41.1464 76.7716C41.3895 75.6419 40.4991 73.3937 40.1121 72.0137C39.0011 68.0527 37.2272 60.9091 36.6971 57.1473C37.0434 56.8247 37.1831 56.6549 37.596 56.4372C37.8873 56.9863 37.8774 56.9001 38.3222 57.3553L38.6974 57.8192C39.5203 58.7923 43.9078 61.5283 45.2618 61.8956C45.117 64.4264 44.826 67.0513 44.641 69.6102C44.4311 72.5102 43.9486 74.2721 46.9068 75.0415C46.6694 75.7003 45.6446 79.5709 45.7731 80.1189C46.5055 80.9056 47.6771 80.7253 48.6462 81.181C49.0287 81.5953 49.0235 90.0192 49.4314 92.0059ZM32.005 94.6004C31.2342 94.3023 30.4539 94.1191 29.6931 94.1237L28.6356 77.9473L31.2531 78.6756C31.4112 81.6 31.6293 86.3981 31.6293 89.7529C31.6293 90.4035 31.5956 93.1997 32.005 94.6004ZM47.1879 73.6665C46.2191 73.6329 45.8252 73.2568 45.7731 72.1945L46.6162 61.2807C46.6887 60.2202 47.7075 60.2226 48.508 59.8277C51.1352 58.5303 55.1547 58.2993 57.6238 59.7006C58.5014 60.1988 58.5745 60.4295 58.6499 61.6413L58.9825 69.8984C59.1128 71.4631 60.0167 73.7775 58.0257 73.6282C57.6305 72.2985 55.9774 65.9073 56.4245 64.6384C56.5268 64.3487 57.7892 62.6081 55.8661 62.8805C55.1053 64.0979 54.8066 65.079 55.1816 66.9046L57.8231 79.5002C54.4641 80.2761 50.5074 80.527 47.1785 79.4048C47.3015 78.2988 47.9086 76.3365 48.2084 75.1152C48.8019 72.6983 49.8403 68.4617 50.2052 66.1372C50.3833 65.003 49.4387 61.7983 47.8843 62.6122C47.6844 63.6295 48.8689 64.4087 48.8256 65.6158C48.7909 66.5846 47.4442 72.9129 47.1879 73.6665ZM49.4601 55.1726C50.3903 55.7258 51.0549 56.433 52.718 56.4205C54.4153 56.4079 54.8964 55.6905 55.7549 55.1841L55.7371 57.6318C53.2861 57.4527 52.7326 56.5111 50.0945 57.0459L49.4601 55.1726ZM26.2483 64.508C26.0764 63.8934 25.8464 62.346 25.5214 61.5385C24.5222 59.0556 24.2718 56.0426 24.367 53.3826C24.6756 44.7258 35.9974 46.5001 39.6361 49.296C40.7004 50.1134 39.9125 51.1798 41.5204 53.7088C42.2303 54.8243 43.9125 56.5321 44.8742 57.2666L46.6116 58.6284C46.6236 58.6032 46.6651 58.6717 46.6914 58.6933C44.9464 60.3409 45.8702 59.7736 45.2737 60.4835C43.7503 59.6655 42.6471 59.1314 41.3509 58.2558C40.64 57.7759 38.3911 55.8848 38.3175 55.1776C38.2658 54.6831 39.0726 51.7342 37.7988 51.6008C35.2353 53.5622 37.5483 55.2191 35.389 56.44C35.0605 57.2832 36.7105 65.1921 37.067 66.5832L39.0417 75.347C37.8499 75.5369 37.1792 76.1185 35.8457 76.2751C31.9341 76.7327 28.5327 76.8744 24.8013 75.7925L27.2649 66.399C30.7642 52.3554 28.7455 57.8864 27.5656 54.7711C27.1457 53.6617 27.7071 52.2649 27.2322 51.8589C26.117 50.7379 25.8622 53.2272 26.1559 54.6036C26.4718 56.0847 27.4301 56.6129 27.9097 57.1943L26.7942 62.7107C26.6746 63.2195 26.5425 64.1155 26.2483 64.508ZM55.3151 48.9657C55.5127 49.151 55.3958 48.985 55.5428 49.2387C55.743 49.5844 55.7523 49.9856 55.7678 50.3971C55.7868 50.8925 55.6232 52.4706 55.5822 52.9554C55.3397 55.83 52.5622 55.3828 50.4782 52.9482C49.605 51.9283 49.1898 49.6856 50.0066 48.521C51.2439 46.7568 52.2112 47.1951 53.86 47.9891C52.8399 50.2692 52.1098 49.1341 51.3631 49.3337C50.3572 49.6021 50.9502 51.4104 53.5862 50.4349C54.4978 50.0977 55.0559 49.727 55.3151 48.9657ZM28.5782 42.2591C29.1751 42.577 30.0483 43.8672 32.3456 43.8524C34.2185 43.8398 35.0754 42.8717 35.9805 42.2497L35.9331 46.4124C32.824 45.6747 32.0463 45.5191 29.8194 45.5661L28.5782 42.2591ZM29.6908 41.0296C28.1706 39.493 28.4353 37.1472 28.9634 35.1927C28.9886 35.2175 29.0215 35.2532 29.0368 35.2704L29.49 35.8266C30.2528 36.7307 30.3504 36.8701 31.3879 37.3134C32.3309 37.7167 34.5604 38.125 34.8214 36.909C34.7907 35.4583 31.3961 37.6352 30.0082 34.0973C31.7108 32.3211 34.2881 33.9258 35.1548 35.3835C36.1719 37.094 36.0877 39.5883 34.91 40.9297C33.4914 42.5449 31.3954 42.7518 29.6908 41.0296ZM69.9099 39.1581C70.1694 42.1372 73.065 44.7405 76.5678 43.7574C81.3076 42.4277 81.0578 36.1372 79.7004 33.8284C77.4194 29.9492 69.0765 29.5899 69.9099 39.1581Z" fill="#E31F25"/>
<path fill-rule="evenodd" clip-rule="evenodd" d="M78.5236 22.4945C75.9224 21.491 68.8884 13.539 68.7732 10.1745C71.5105 11.1068 77.8176 18.9748 78.5236 22.4945ZM72.3536 10.8188C77.9283 13.06 80.9972 14.0558 86.4624 18.0481C87.828 19.0459 87.3499 19.2045 88.7608 18.9099C88.7024 16.4708 80.5752 12.8412 78.2212 11.4291C79.8753 10.7046 80.2508 11.0626 80.3385 9.64849C77.9447 8.4132 79.6453 11.2628 73.6198 9.68851C71.6931 9.1853 68.4206 8.42932 67.1476 7.57568C69.9946 6.30121 75.1848 3.00582 74.7648 0.0167542C72.1268 -0.24975 66.2717 2.7191 64.3421 5.0965C63.1055 6.6212 63.6404 7.06149 61.5719 6.94643C59.3839 6.82426 57.4694 6.39171 55.0104 6.40377C53.1176 6.41305 49.7613 6.94088 47.9879 6.78944C49.0476 5.15 50.1631 5.40395 49.4778 3.73122C48.6142 3.72812 45.3353 7.22026 42.0309 8.06008C38.8692 8.86403 36.314 9.90855 33.1712 10.9434C33.4948 9.85391 34.7635 4.7905 33.1441 3.4921C31.4316 3.7917 30.3608 6.34204 29.781 7.52125C28.9095 9.29348 28.6687 10.548 29.3487 12.9466C25.4915 14.9083 22.9433 17.3265 19.6218 19.2577C19.7749 17.7185 20.2338 16.2207 20.0853 14.4155C19.9401 12.6525 20.1326 10.3475 18.6366 9.01635C16.673 10.0979 14.9868 13.8658 14.5347 15.4249C13.4295 19.2364 14.9924 22.6336 14.8264 23.5849C14.5131 24.5651 11.6974 27.7589 10.9244 28.6611C8.93773 30.9812 6.1334 36.4222 4.73242 39.2756L2.47194 45.0773C0.752394 49.3764 -1.48181 67.2151 1.35406 69.2573C3.05175 67.8154 1.40871 66.549 1.58171 61.841C1.82254 55.2822 3.52805 40.5813 9.03618 35.9859C12.0109 33.5033 12.5355 34.4591 15.0105 33.3498C14.1685 32.0836 14.0993 32.1152 12.672 32.4209C11.6127 32.6476 10.5416 33.2058 9.50207 33.6991C11.9978 29.2816 16.0798 23.7936 20.708 20.5614C23.7882 21.5632 22.9156 23.0717 31.6406 23.9209C33.9083 24.1419 41.7676 24.4168 44.0453 22.4571C43.3769 20.9103 41.33 20.4119 39.9603 19.9906C35.6889 18.6761 35.0255 18.4093 30.2181 17.8353L24.6206 17.3598L36.4 11.0184C38.7428 13.8076 48.2246 16.107 52.0855 13.7218C50.2338 10.6737 45.6435 10.6924 43.5824 9.37295C47.3117 7.96517 54.6721 7.04347 58.9622 9.30272C62.5106 11.171 61.6838 12.1606 63.5159 11.7257C63.6819 10.4104 61.789 9.20776 60.8249 8.38918L66.6026 8.8591C68.2896 13.6983 69.5211 15.8098 72.9594 19.5815C74.9536 21.7695 78.6689 25.6607 81.0574 25.388C81.2514 21.7145 74.6888 13.2506 72.3536 10.8188ZM40.823 22.093C40.6985 22.1143 40.1851 22.2193 40.0586 22.2432C39.9355 22.266 39.827 22.2891 39.6946 22.3125C36.2982 22.916 25.0271 22.3806 22.9016 19.6755C27.1424 18.639 32.7668 19.2389 36.5066 20.3591C37.3269 20.6052 37.6779 20.6453 38.5622 20.9518C38.8694 21.0588 39.2578 21.1969 39.6091 21.3691C39.7016 21.4147 39.8095 21.4728 39.8955 21.5187C39.9878 21.567 40.119 21.65 40.1953 21.693C40.2759 21.7368 40.5083 21.9585 40.5065 21.8867C40.5045 21.8127 40.7184 22.0229 40.823 22.093ZM65.2346 6.50111C66.3924 4.29929 69.9452 2.79508 72.0929 2.1165C70.8859 4.02141 67.4459 6.26255 65.2346 6.50111ZM48.7165 13.0086C47.1559 13.4836 44.5465 13.0244 43.2597 12.7968C41.3982 12.468 40.147 12.1612 38.4158 10.8496C41.3932 10.038 46.6161 11.6126 48.7165 13.0086ZM30.6066 11.9224C30.1858 9.67512 31.1183 8.00143 32.3658 6.10909C32.4579 7.84472 32.0073 10.5573 30.6066 11.9224ZM16.0223 22.1862C15.2273 18.9616 15.8586 14.1133 18.2138 11.596C18.9283 14.2212 18.9137 20.5073 16.0223 22.1862Z" fill="#00923A"/>
<path d="M262.938 36.4457C263.279 36.3497 263.641 36.2857 264.025 36.2537C264.409 36.2217 264.788 36.2057 265.161 36.2057C265.588 36.2057 266.009 36.2537 266.425 36.3497C266.841 36.4457 267.215 36.6217 267.546 36.8777C267.887 37.1337 268.159 37.4857 268.361 37.9337C268.575 38.3817 268.682 38.9523 268.682 39.6457C268.682 40.3177 268.58 40.8883 268.378 41.3577C268.186 41.827 267.924 42.211 267.593 42.5097C267.273 42.7977 266.9 43.011 266.473 43.1497C266.057 43.2777 265.626 43.3417 265.178 43.3417C265.135 43.3417 265.065 43.3417 264.969 43.3417C264.873 43.3417 264.772 43.3417 264.665 43.3417C264.559 43.331 264.452 43.3203 264.346 43.3097C264.25 43.299 264.18 43.2883 264.137 43.2777V47.5337H262.938V36.4457ZM265.225 37.3097C265.012 37.3097 264.804 37.3203 264.602 37.3417C264.41 37.3523 264.255 37.3737 264.137 37.4057V42.1737C264.18 42.195 264.244 42.211 264.329 42.2217C264.425 42.2217 264.521 42.227 264.617 42.2377C264.713 42.2377 264.804 42.2377 264.889 42.2377C264.985 42.2377 265.055 42.2377 265.098 42.2377C265.396 42.2377 265.684 42.2003 265.962 42.1257C266.239 42.051 266.484 41.9177 266.697 41.7257C266.911 41.523 267.082 41.2563 267.21 40.9257C267.348 40.5843 267.417 40.1577 267.417 39.6457C267.417 39.1977 267.353 38.8243 267.225 38.5257C267.108 38.227 266.948 37.987 266.745 37.8057C266.553 37.6243 266.324 37.4963 266.057 37.4217C265.791 37.347 265.513 37.3097 265.225 37.3097Z" fill="#00923A"/>
<path d="M261.684 37.4376H258.932V47.5336H257.732V37.4376H254.98V36.3336H261.684V37.4376Z" fill="#00923A"/>
<path d="M252.531 42.3656H248.403V47.5336H247.203V36.3336H248.403V41.2616H252.531V36.3336H253.731V47.5336H252.531V42.3656Z" fill="#00923A"/>
<path d="M240.344 36.3336H245.32V37.4376H241.544V41.2296H245.016V42.3336H241.544V46.4296H245.4V47.5336H240.344V36.3336Z" fill="#00923A"/>
<path d="M238.987 49.5976H238.155L237.947 47.5336H231.531V36.3336H232.731V46.4296H236.603V36.3336H237.803V46.4296H238.987V49.5976Z" fill="#00923A"/>
<path d="M224.894 40.2056L224.99 38.7336H224.941L224.382 40.2376L220.237 47.5336H219.438V36.3336H220.637V43.7736L220.525 45.2136H220.59L221.149 43.7096L225.31 36.3336H226.093V47.5336H224.894V40.2056ZM221.757 33.6136C221.779 34.0083 221.885 34.323 222.077 34.5576C222.28 34.7923 222.552 34.9096 222.894 34.9096C223.235 34.9096 223.496 34.7923 223.677 34.5576C223.869 34.323 223.981 34.0136 224.013 33.6296L225.037 33.8696C224.952 34.4776 224.734 34.947 224.382 35.2776C224.03 35.6083 223.528 35.7736 222.877 35.7736C222.248 35.7736 221.726 35.6243 221.31 35.3256C220.904 35.027 220.669 34.547 220.605 33.8856L221.757 33.6136Z" fill="#00923A"/>
<path d="M216.19 40.2056L216.286 38.7336H216.238L215.678 40.2376L211.534 47.5336H210.734V36.3336H211.934V43.7736L211.822 45.2136H211.886L212.446 43.7096L216.606 36.3336H217.39V47.5336H216.19V40.2056Z" fill="#00923A"/>
<path d="M204.62 42.3496H204.044V47.5336H202.844V36.3336H204.044V41.5496L204.604 41.3256L207.516 36.3336H208.892L205.964 41.1656L205.404 41.6776L206.06 42.3176L209.308 47.5336H207.788L204.62 42.3496Z" fill="#00923A"/>
<path d="M201.372 47.1017C201.105 47.3257 200.769 47.4857 200.364 47.5817C199.958 47.6777 199.532 47.7257 199.084 47.7257C198.518 47.7257 197.996 47.619 197.516 47.4057C197.036 47.1923 196.62 46.8563 196.268 46.3977C195.926 45.9283 195.66 45.3257 195.468 44.5897C195.276 43.8537 195.18 42.9683 195.18 41.9337C195.18 40.867 195.286 39.9657 195.5 39.2297C195.724 38.4937 196.017 37.8963 196.38 37.4377C196.742 36.979 197.158 36.6483 197.628 36.4457C198.108 36.243 198.598 36.1417 199.1 36.1417C199.612 36.1417 200.033 36.179 200.364 36.2537C200.705 36.3283 200.998 36.419 201.244 36.5257L200.956 37.6137C200.742 37.4963 200.492 37.4057 200.204 37.3417C199.916 37.2777 199.585 37.2457 199.212 37.2457C198.838 37.2457 198.486 37.331 198.156 37.5017C197.825 37.6617 197.532 37.9283 197.276 38.3017C197.02 38.6643 196.817 39.1443 196.668 39.7417C196.518 40.339 196.444 41.0697 196.444 41.9337C196.444 43.491 196.71 44.6643 197.244 45.4537C197.777 46.2323 198.486 46.6217 199.372 46.6217C199.734 46.6217 200.06 46.5737 200.348 46.4777C200.636 46.371 200.881 46.2483 201.084 46.1097L201.372 47.1017Z" fill="#00923A"/>
<path d="M192.266 42.3656H188.138V47.5336H186.938V36.3336H188.138V41.2616H192.266V36.3336H193.466V47.5336H192.266V42.3656Z" fill="#00923A"/>
<path d="M183.69 40.2056L183.786 38.7336H183.738L183.178 40.2376L179.034 47.5336H178.234V36.3336H179.434V43.7736L179.322 45.2136H179.386L179.946 43.7096L184.106 36.3336H184.89V47.5336H183.69V40.2056Z" fill="#00923A"/>
<path d="M176.878 49.5976H176.046L175.838 47.5336H169.422V36.3336H170.622V46.4296H174.494V36.3336H175.694V46.4296H176.878V49.5976Z" fill="#00923A"/>
<path d="M166.175 40.2056L166.271 38.7336H166.223L165.663 40.2376L161.519 47.5336H160.719V36.3336H161.919V43.7736L161.807 45.2136H161.871L162.431 43.7096L166.591 36.3336H167.375V47.5336H166.175V40.2056Z" fill="#00923A"/>
<path d="M159.358 49.5976H158.51L158.318 47.5336H152.11L151.918 49.5976H151.07V46.4296H151.998C152.062 46.3123 152.164 46.035 152.302 45.5976C152.452 45.1603 152.596 44.5363 152.734 43.7256C152.884 42.9043 153.012 41.8856 153.118 40.6696C153.225 39.443 153.273 37.9976 153.262 36.3336H158.19V46.4296H159.358V49.5976ZM156.99 46.4296V37.4376H154.414C154.361 39.795 154.222 41.7043 153.998 43.1656C153.774 44.627 153.529 45.715 153.262 46.4296H156.99Z" fill="#00923A"/>
<path d="M145.188 36.3336H150.163V37.4376H146.387V41.2296H149.859V42.3336H146.387V46.4296H150.243V47.5336H145.188V36.3336Z" fill="#00923A"/>
<path d="M141.944 40.1736L142.088 38.4776H142.024L141.512 40.0616L139.256 44.9256H138.856L136.488 40.0616L135.992 38.4776H135.928L136.152 40.1736V47.5336H135V36.3336H136.008L138.712 41.8376L139.112 43.1496H139.144L139.528 41.8216L142.088 36.3336H143.144V47.5336H141.944V40.1736Z" fill="#00923A"/>
<path d="M141.442 54.9608C143.415 54.9608 144.839 55.5088 145.68 56.6412C146.52 57.7736 146.921 59.3081 146.921 61.171V63.9475C146.921 65.9933 146.447 67.5277 145.497 68.5143C144.547 69.5003 143.049 70.0121 141.004 70.0121H137.825V80.5331H136.145V54.9608H141.442ZM141.004 68.4777C142.501 68.4777 143.561 68.1122 144.255 67.4182C144.912 66.7239 145.241 65.6282 145.241 64.0571V61.0618C145.241 59.6735 144.985 58.5775 144.438 57.7373C143.89 56.8971 142.867 56.495 141.442 56.495H137.825V68.4777H141.004Z" fill="#E31F25"/>
<path fill-rule="evenodd" clip-rule="evenodd" d="M136 80.6771H137.969V70.1561H141.003C143.07 70.1561 144.613 69.639 145.6 68.6142C146.586 67.5899 147.065 66.012 147.065 63.9475V61.171C147.065 59.2891 146.659 57.7207 145.795 56.5554C144.917 55.3721 143.438 54.8168 141.441 54.8168H136V80.6771ZM136.288 80.3891V55.1048H141.441C143.39 55.1048 144.761 55.6455 145.563 56.727C146.379 57.8265 146.777 59.3271 146.777 61.171V63.9475C146.777 65.9746 146.306 67.4656 145.393 68.4144C144.48 69.3615 143.028 69.8681 141.003 69.8681H137.681V80.3891H136.288ZM137.681 68.6216H141.003C142.522 68.6216 143.625 68.2508 144.356 67.52L144.359 67.5172C145.053 66.784 145.385 65.6438 145.385 64.0571V61.0618C145.385 59.6573 145.126 58.5304 144.558 57.6586C143.972 56.76 142.889 56.351 141.441 56.351H137.681V68.6216ZM137.969 68.3336V56.639H141.441C142.843 56.639 143.807 57.0343 144.316 57.8159C144.844 58.6246 145.097 59.6898 145.097 61.0618V64.0571C145.097 65.6114 144.771 66.6623 144.151 67.3177C143.494 67.974 142.478 68.3336 141.003 68.3336H137.969Z" fill="#E31F25"/>
<path d="M156.377 54.9608C158.313 54.9608 159.738 55.4722 160.578 56.495C161.418 57.5181 161.857 58.9426 161.857 60.733V62.9614C161.857 65.9203 160.615 67.7103 158.167 68.2584C159.482 68.5506 160.432 69.1352 161.016 70.0483C161.564 70.9619 161.857 72.0942 161.857 73.4825V77.4646C161.857 78.0126 161.893 78.5239 161.966 79.0721C162.039 79.6201 162.222 80.1313 162.477 80.5331H160.724C160.505 80.1313 160.359 79.693 160.286 79.2179C160.212 78.7431 160.176 78.1584 160.176 77.4646V73.4458C160.176 72.6056 160.067 71.8749 159.847 71.3269C159.628 70.7789 159.299 70.3042 158.898 69.9754C158.459 69.6466 157.948 69.4274 157.363 69.2811C156.779 69.1715 156.121 69.0986 155.391 69.0986H152.724V80.5331H151.043V54.9608H156.377ZM155.427 67.5644C156.194 67.5644 156.852 67.4912 157.436 67.3816C158.021 67.272 158.532 67.0527 158.934 66.7239C159.336 66.3955 159.628 65.957 159.847 65.409C160.067 64.861 160.176 64.1304 160.176 63.2902V60.8789C160.176 59.4906 159.884 58.395 159.299 57.6276C158.715 56.8604 157.729 56.495 156.34 56.495H152.724V67.5644H155.427Z" fill="#E31F25"/>
<path fill-rule="evenodd" clip-rule="evenodd" d="M150.898 80.6771H152.867V69.2426H155.39C156.109 69.2426 156.757 69.3142 157.332 69.4218C157.9 69.5644 158.39 69.7759 158.808 70.0887C159.187 70.3994 159.502 70.8519 159.713 71.3804C159.923 71.9052 160.032 72.6159 160.032 73.4457V77.4645C160.032 78.1627 160.068 78.7552 160.143 79.2397C160.218 79.7305 160.37 80.1849 160.597 80.602L160.638 80.6771H162.739L162.598 80.4558C162.355 80.0735 162.179 79.5825 162.108 79.053C162.036 78.5107 162 78.0057 162 77.4645V73.4824C162 72.0737 161.703 70.9146 161.139 69.9742L161.137 69.9706C160.61 69.1467 159.8 68.5858 158.725 68.2563C159.722 67.9367 160.5 67.3826 161.047 66.5962C161.686 65.6788 162 64.4597 162 62.9614V60.7329C162 58.92 161.556 57.4597 160.689 56.4036C159.81 55.3338 158.334 54.8168 156.376 54.8168H150.898V80.6771ZM151.186 80.3891V55.1048H156.376C158.291 55.1048 159.665 55.6106 160.466 56.5864C161.279 57.5764 161.712 58.9651 161.712 60.7329V62.9614C161.712 64.422 161.405 65.5773 160.811 66.4317C160.218 67.2834 159.329 67.8504 158.135 68.1179L157.505 68.259L158.135 68.399C159.423 68.6851 160.335 69.2526 160.894 70.1242C161.425 71.0107 161.712 72.1155 161.712 73.4824V77.4645C161.712 78.0194 161.749 78.5371 161.823 79.091C161.886 79.5624 162.027 80.0096 162.227 80.3891H160.81C160.621 80.0232 160.494 79.6258 160.428 79.196C160.356 78.731 160.32 78.1541 160.32 77.4645V73.4457C160.32 72.5954 160.209 71.8446 159.981 71.2734C159.754 70.7071 159.412 70.2108 158.988 69.8639L158.984 69.86C158.526 69.5171 157.996 69.2911 157.398 69.1414L157.389 69.1393C156.797 69.0282 156.13 68.9546 155.39 68.9546H152.579V80.3891H151.186ZM152.579 67.7084H155.426C156.203 67.7084 156.87 67.6342 157.462 67.5231M159.024 66.8354C159.45 66.488 159.755 66.0271 159.981 65.4624C160.209 64.8913 160.32 64.1407 160.32 63.2901V60.8788C160.32 59.4729 160.024 58.3419 159.413 57.5404C158.79 56.7226 157.75 56.351 156.34 56.351H152.579V67.7084M152.867 67.4204V56.639H156.34C157.706 56.639 158.638 56.9983 159.184 57.7149C159.742 58.448 160.032 59.5083 160.032 60.8788V63.2901C160.032 64.1202 159.923 64.8306 159.713 65.3555C159.501 65.8869 159.221 66.303 158.842 66.6124C158.463 66.923 157.975 67.1339 157.409 67.24C156.833 67.3481 156.184 67.4204 155.426 67.4204H152.867Z" fill="#E31F25"/>
<path d="M166.562 61.2076C166.562 60.2946 166.672 59.4177 166.891 58.6138C167.11 57.847 167.439 57.1526 167.914 56.5683C168.353 56.0203 168.937 55.5453 169.631 55.2164C170.325 54.8876 171.166 54.7417 172.152 54.7417C173.138 54.7417 173.979 54.8876 174.709 55.2164C175.403 55.5453 175.988 56.0203 176.463 56.5683C176.938 57.1526 177.266 57.847 177.486 58.6138C177.705 59.4177 177.814 60.2946 177.814 61.2076V74.2863C177.814 75.1995 177.705 76.0763 177.486 76.8435C177.266 77.6471 176.938 78.3414 176.463 78.8891C175.988 79.4738 175.403 79.9122 174.709 80.241C173.979 80.6061 173.138 80.7523 172.152 80.7523C171.166 80.7523 170.325 80.6061 169.631 80.241C168.937 79.9122 168.353 79.4738 167.914 78.8891C167.439 78.3414 167.11 77.6471 166.891 76.8435C166.672 76.0763 166.562 75.1995 166.562 74.2863V61.2076ZM168.243 74.396C168.243 75.7842 168.535 76.9166 169.156 77.8296C169.741 78.7431 170.727 79.2179 172.152 79.2179C173.577 79.2179 174.6 78.7431 175.221 77.8296C175.842 76.9166 176.134 75.7842 176.134 74.396V61.098C176.134 59.7098 175.842 58.5408 175.221 57.6276C174.6 56.7142 173.577 56.2758 172.152 56.2758C170.727 56.2758 169.741 56.7142 169.156 57.6276C168.535 58.5408 168.243 59.7098 168.243 61.098V74.396Z" fill="#E31F25"/>
<path fill-rule="evenodd" clip-rule="evenodd" d="M169.568 80.3698C170.29 80.7488 171.155 80.8963 172.154 80.8963C173.153 80.8963 174.017 80.7483 174.774 80.3705C175.484 80.0339 176.085 79.5835 176.575 78.9817C177.066 78.4137 177.403 77.699 177.626 76.8823C177.626 76.882 177.626 76.8817 177.626 76.8814L177.487 76.8435L177.626 76.8831C177.626 76.8828 177.626 76.8826 177.626 76.8823C177.849 76.1003 177.96 75.2101 177.96 74.2863V61.2076C177.96 60.2832 177.849 59.3935 177.626 58.5759L177.626 58.5742C177.402 57.7931 177.066 57.08 176.576 56.4775L176.573 56.4739L176.573 56.474C176.087 55.913 175.487 55.4248 174.772 55.0862L174.77 55.085L174.77 55.085C174.015 54.7456 173.154 54.5976 172.154 54.5976C171.154 54.5976 170.291 54.7453 169.571 55.0862C168.857 55.4246 168.256 55.9133 167.804 56.4779C167.804 56.4777 167.804 56.4776 167.804 56.4774L167.916 56.5683L167.803 56.4783C167.804 56.4782 167.804 56.478 167.804 56.4779C167.314 57.0804 166.977 57.7933 166.754 58.5742L166.754 58.5759C166.531 59.3935 166.42 60.2832 166.42 61.2076V74.2863C166.42 75.2101 166.531 76.1002 166.754 76.8823C166.754 76.882 166.754 76.8817 166.754 76.8814L166.893 76.8435L166.754 76.8831C166.754 76.8828 166.754 76.8825 166.754 76.8823C166.977 77.698 167.313 78.4119 167.804 78.9796C167.803 78.9782 167.802 78.9769 167.801 78.9755L167.916 78.8891L167.807 78.9835C167.806 78.9822 167.805 78.9809 167.804 78.9796C168.258 79.5837 168.86 80.034 169.568 80.3698ZM169.568 80.3698C169.568 80.3694 169.567 80.3689 169.566 80.3684L169.633 80.241L169.571 80.3711C169.57 80.3707 169.569 80.3703 169.568 80.3698ZM172.154 80.6083C171.18 80.6083 170.366 80.4637 169.7 80.1135L169.695 80.1107L169.694 80.1108C169.017 79.79 168.453 79.3651 168.031 78.8027L168.025 78.7945L168.025 78.7947C167.567 78.2678 167.247 77.5949 167.032 76.8056L167.031 76.804L167.031 76.804C166.816 76.0518 166.708 75.1886 166.708 74.2863V61.2076C166.708 60.3062 166.816 59.4425 167.031 58.6525C167.247 57.9004 167.567 57.2249 168.028 56.6592L168.028 56.6583C168.453 56.1271 169.02 55.6659 169.695 55.3465C170.363 55.0298 171.18 54.8856 172.154 54.8856C173.125 54.8856 173.944 55.0293 174.65 55.3471C175.323 55.666 175.891 56.1269 176.354 56.6609C176.813 57.2263 177.134 57.9012 177.348 58.6526C177.564 59.4425 177.672 60.3062 177.672 61.2076V74.2863C177.672 75.1886 177.564 76.0518 177.349 76.804L177.348 76.8056L177.348 76.8056C177.133 77.5949 176.812 78.2678 176.356 78.7948L176.353 78.7982L176.353 78.7983C175.892 79.3645 175.326 79.7902 174.649 80.1109L174.646 80.1121L174.646 80.1122C173.942 80.464 173.126 80.6083 172.154 80.6083ZM172.154 79.0739C170.763 79.0739 169.83 78.6131 169.279 77.752L169.277 77.7486L169.277 77.7486C168.676 76.8657 168.389 75.764 168.389 74.3959V61.098C168.389 59.7291 168.677 58.5911 169.277 57.7086L169.279 57.7053L169.279 57.7053C169.829 56.8465 170.759 56.4197 172.154 56.4197C173.548 56.4197 174.517 56.847 175.103 57.7086L175.103 57.7086C175.703 58.5911 175.991 59.7291 175.991 61.098V74.3959C175.991 75.764 175.703 76.8657 175.103 77.7486L175.103 77.7487C174.516 78.6126 173.544 79.0739 172.154 79.0739ZM169.038 77.9089C169.656 78.8736 170.695 79.3619 172.154 79.3619C173.612 79.3619 174.687 78.8736 175.341 77.9106C175.983 76.9674 176.279 75.8044 176.279 74.3959V61.098C176.279 59.6904 175.983 58.4906 175.341 57.5467C174.685 56.5813 173.609 56.1317 172.154 56.1317C170.699 56.1317 169.657 56.5813 169.038 57.5483C168.397 58.492 168.101 59.6912 168.101 61.098V74.3959C168.101 75.8036 168.397 76.966 169.038 77.9089Z" fill="#E31F25"/>
<path d="M187.563 54.7417C188.55 54.7417 189.39 54.8876 190.084 55.2164C190.778 55.5453 191.326 56.0203 191.801 56.5683C192.239 57.1526 192.568 57.847 192.787 58.6138C192.97 59.4177 193.08 60.2946 193.08 61.2076V61.8653C193.08 63.1439 192.787 64.2401 192.203 65.1531C191.582 66.103 190.741 66.7606 189.609 67.126C190.778 67.4548 191.655 68.1122 192.239 69.0257C192.787 69.9754 193.08 71.0715 193.08 72.3134V74.2863C193.08 75.1995 192.97 76.0763 192.787 76.8435C192.568 77.6471 192.239 78.3414 191.801 78.8891C191.326 79.4738 190.778 79.9122 190.084 80.241C189.39 80.6061 188.55 80.7523 187.563 80.7523C186.577 80.7523 185.773 80.6061 185.079 80.241C184.385 79.9122 183.801 79.4738 183.362 78.8891C182.887 78.3414 182.558 77.6471 182.376 76.8435C182.156 76.0763 182.047 75.1995 182.047 74.2863V72.1671H183.654V74.396C183.654 75.09 183.727 75.7109 183.874 76.2955C183.983 76.8799 184.202 77.3912 184.531 77.8296C184.86 78.268 185.262 78.5969 185.736 78.8527C186.212 79.1083 186.832 79.2179 187.527 79.2179C188.951 79.2179 189.938 78.7431 190.522 77.8296C191.107 76.9166 191.399 75.7108 191.399 74.2496V72.2767C191.399 70.9619 191.07 69.9024 190.376 69.1352C189.682 68.368 188.696 67.9662 187.454 67.9662H186.029V66.4318H187.563C188.696 66.4318 189.646 66.03 190.34 65.1898C191.034 64.386 191.399 63.3998 191.399 62.1942V61.2443C191.399 59.7829 191.107 58.5775 190.522 57.664C189.938 56.7508 188.951 56.2758 187.527 56.2758C186.102 56.2758 185.115 56.7142 184.531 57.6276C183.91 58.5408 183.618 59.7098 183.618 61.098V62.4863H182.084V61.171C182.084 60.258 182.193 59.381 182.412 58.6138C182.595 57.847 182.924 57.1526 183.362 56.5683C183.801 56.0203 184.385 55.5453 185.079 55.2164C185.773 54.8876 186.577 54.7417 187.563 54.7417Z" fill="#00923A"/>
<path fill-rule="evenodd" clip-rule="evenodd" d="M185.014 80.3698C185.735 80.7485 186.564 80.8963 187.563 80.8963C188.56 80.8963 189.426 80.7488 190.148 80.3698C190.861 80.0317 191.425 79.58 191.912 78.9799L191.913 78.9791C192.366 78.4126 192.702 77.6994 192.926 76.8814L192.927 76.8769C193.112 76.0987 193.223 75.2107 193.223 74.2863V72.3133C193.223 71.048 192.925 69.9268 192.363 68.9537L192.36 68.948C191.825 68.1124 191.054 67.4853 190.051 67.1178C191.018 66.7235 191.759 66.094 192.323 65.2319L192.324 65.2307C192.925 64.2906 193.223 63.1664 193.223 61.8653V61.2076C193.223 60.2831 193.112 59.3955 192.927 58.5818L192.925 58.5742C192.702 57.7931 192.366 57.0823 191.916 56.4819L191.91 56.4737C191.425 55.9153 190.862 55.426 190.145 55.0862C189.425 54.7453 188.562 54.5976 187.563 54.5976C186.562 54.5976 185.736 54.7456 185.017 55.0862C184.303 55.4246 183.701 55.9135 183.249 56.4783L183.246 56.4818C182.796 57.0814 182.46 57.7929 182.272 58.5773C182.05 59.3588 181.939 60.2482 181.939 61.171V62.6303H183.761V61.098C183.761 59.7291 184.05 58.5911 184.65 57.7086L184.652 57.7052C185.201 56.8466 186.132 56.4197 187.526 56.4197C188.916 56.4197 189.849 56.8807 190.401 57.7416C190.966 58.6249 191.254 59.8007 191.254 61.2443V62.1942C191.254 63.3679 190.9 64.3199 190.23 65.0957L190.228 65.0981C189.565 65.9011 188.658 66.2877 187.563 66.2877H185.884V68.1102H187.453C188.662 68.1102 189.607 68.5001 190.269 69.2318C190.932 69.9645 191.254 70.9852 191.254 72.2767V74.2496C191.254 75.693 190.966 76.8691 190.401 77.752C189.849 78.6131 188.916 79.0739 187.526 79.0739C186.844 79.0739 186.25 78.9658 185.804 78.7259C185.346 78.4789 184.961 78.1631 184.646 77.7432C184.331 77.3239 184.12 76.8335 184.015 76.269L184.013 76.2605C183.87 75.6886 183.798 75.0796 183.798 74.3959V72.0231H181.902V74.2863C181.902 75.2089 182.013 76.098 182.236 76.8793C182.422 77.6982 182.759 78.4124 183.249 78.9796C183.704 79.5837 184.306 80.034 185.014 80.3698ZM187.563 80.6083C186.59 80.6083 185.812 80.464 185.146 80.1135L185.14 80.1107C184.463 79.7898 183.899 79.3651 183.477 78.8027L183.471 78.7945C183.014 78.2677 182.694 77.5964 182.516 76.8116L182.514 76.8039C182.299 76.0517 182.19 75.1886 182.19 74.2863V72.3111H183.51V74.3959C183.51 75.0987 183.584 75.7301 183.732 76.3263C183.846 76.9288 184.073 77.4596 184.415 77.916C184.758 78.3728 185.176 78.7148 185.668 78.9795C186.172 79.2508 186.82 79.3619 187.526 79.3619C188.985 79.3619 190.025 78.873 190.643 77.9072C191.247 76.964 191.542 75.7286 191.542 74.2496V72.2767C191.542 70.9387 191.207 69.8402 190.482 69.0386C189.756 68.2359 188.728 67.8222 187.453 67.8222H186.172V66.5757H187.563C188.732 66.5757 189.724 66.1591 190.449 65.2827C191.167 64.451 191.542 63.4311 191.542 62.1942V61.2443C191.542 59.7651 191.247 58.5301 190.643 57.5864C190.025 56.6209 188.985 56.1317 187.526 56.1317C186.072 56.1317 185.03 56.5813 184.41 57.5483C183.769 58.492 183.473 59.6912 183.473 61.098V62.3423H182.227V61.171C182.227 60.2689 182.335 59.4055 182.55 58.6534L182.552 58.6472C182.73 57.9 183.05 57.2243 183.475 56.6565C183.9 56.126 184.467 55.6655 185.14 55.3465C185.809 55.0295 186.59 54.8856 187.563 54.8856C188.536 54.8856 189.353 55.0298 190.022 55.3465C190.691 55.6638 191.223 56.1229 191.688 56.6588C192.112 57.2252 192.432 57.9004 192.647 58.6496C192.827 59.4426 192.935 60.3074 192.935 61.2076V61.8653C192.935 63.1211 192.648 64.189 192.081 65.0749C191.478 65.9972 190.665 66.6338 189.564 66.989L189.11 67.1355L189.569 67.2646C190.705 67.584 191.551 68.2196 192.116 69.1005C192.649 70.0262 192.935 71.0962 192.935 72.3133V74.2863C192.935 75.1875 192.827 76.0522 192.647 76.8079C192.432 77.5959 192.111 78.2702 191.688 78.7987C191.226 79.367 190.696 79.7916 190.022 80.1109L190.016 80.1134C189.35 80.4636 188.536 80.6083 187.563 80.6083Z" fill="#00923A"/>
<path d="M210.975 84.0768V80.5331H198.773V84.0768H197.129V78.9987H198.882C199.394 78.451 199.723 77.8663 199.869 77.1725C200.015 76.4781 200.125 75.7475 200.161 74.9073L201.184 54.9608H210.536V78.9987H212.655V84.0768H210.975ZM201.805 74.9073C201.769 75.7841 201.659 76.5509 201.549 77.2087C201.403 77.9029 201.074 78.4873 200.6 78.9987H208.819V56.495H202.755L201.805 74.9073Z" fill="#00923A"/>
<path fill-rule="evenodd" clip-rule="evenodd" d="M196.984 84.2208H198.916V80.677H210.83V84.2208H212.799V78.8547H210.68V54.8168H201.047L200.017 74.8999L200.017 74.901C199.981 75.7319 199.872 76.4545 199.728 77.1428C199.592 77.7882 199.291 78.3366 198.819 78.8547H196.984V84.2208ZM197.272 83.9328V79.1427H198.945L198.987 79.097C199.514 78.5331 199.857 77.9255 200.009 77.2021C200.157 76.5018 200.267 75.7633 200.304 74.9141C200.304 74.914 200.304 74.9143 200.304 74.9141L201.32 55.1048H210.392V79.1427H212.511V83.9328H211.118V80.389H198.628V83.9328H197.272ZM200.269 79.1427H208.963V56.351H202.618L201.661 74.8999L201.661 74.9013C201.625 75.7683 201.516 76.5275 201.407 77.1819C201.267 77.8463 200.952 78.4067 200.493 78.9007L200.269 79.1427ZM200.914 78.8547C201.293 78.3846 201.56 77.8533 201.69 77.2383L201.691 77.2324C201.801 76.5722 201.912 75.799 201.949 74.914C201.949 74.9138 201.949 74.9143 201.949 74.914L202.891 56.639H208.675V78.8547H200.914Z" fill="#00923A"/>
<path d="M216.74 61.2076C216.74 60.2946 216.85 59.4177 217.069 58.6138C217.288 57.847 217.617 57.1526 218.092 56.5683C218.531 56.0203 219.115 55.5453 219.809 55.2164C220.503 54.8876 221.343 54.7417 222.33 54.7417C223.316 54.7417 224.157 54.8876 224.887 55.2164C225.581 55.5453 226.166 56.0203 226.641 56.5683C227.115 57.1526 227.444 57.847 227.663 58.6138C227.883 59.4177 227.992 60.2946 227.992 61.2076V74.2863C227.992 75.1995 227.883 76.0763 227.663 76.8435C227.444 77.6471 227.115 78.3414 226.641 78.8891C226.166 79.4738 225.581 79.9122 224.887 80.241C224.157 80.6061 223.316 80.7523 222.33 80.7523C221.343 80.7523 220.503 80.6061 219.809 80.241C219.115 79.9122 218.531 79.4738 218.092 78.8891C217.617 78.3414 217.288 77.6471 217.069 76.8435C216.85 76.0763 216.74 75.1995 216.74 74.2863V61.2076ZM218.421 74.396C218.421 75.7842 218.713 76.9166 219.334 77.8296C219.919 78.7431 220.905 79.2179 222.33 79.2179C223.755 79.2179 224.777 78.7431 225.398 77.8296C226.019 76.9166 226.312 75.7842 226.312 74.396V61.098C226.312 59.7098 226.019 58.5408 225.398 57.6276C224.777 56.7142 223.755 56.2758 222.33 56.2758C220.905 56.2758 219.919 56.7142 219.334 57.6276C218.713 58.5408 218.421 59.7098 218.421 61.098V74.396Z" fill="#00923A"/>
<path fill-rule="evenodd" clip-rule="evenodd" d="M219.744 80.3698C220.466 80.7488 221.331 80.8963 222.329 80.8963C223.329 80.8963 224.193 80.7483 224.95 80.3705C225.659 80.0339 226.261 79.5835 226.751 78.9817C227.242 78.4137 227.579 77.699 227.802 76.8823C228.025 76.1002 228.136 75.2101 228.136 74.2863V61.2076C228.136 60.2832 228.025 59.3935 227.802 58.5759L227.801 58.5742C227.578 57.7931 227.241 57.08 226.752 56.4775L226.749 56.4739L226.749 56.474C226.263 55.913 225.663 55.4248 224.948 55.0862L224.946 55.085L224.946 55.085C224.191 54.7456 223.33 54.5976 222.329 54.5976C221.33 54.5976 220.467 54.7453 219.747 55.0862C219.033 55.4246 218.431 55.9133 217.98 56.4779C217.49 57.0804 217.153 57.7933 216.93 58.5742L216.93 58.5759C216.707 59.3935 216.596 60.2832 216.596 61.2076V74.2863C216.596 75.2101 216.706 76.1002 216.93 76.8823C217.153 77.698 217.489 78.4119 217.98 78.9796C218.434 79.5837 219.036 80.034 219.744 80.3698ZM222.329 80.6083C221.356 80.6083 220.541 80.4637 219.876 80.1136L219.87 80.1107L219.87 80.1108C219.193 79.79 218.629 79.3651 218.207 78.8027L218.201 78.7945L218.2 78.7948C217.743 78.2678 217.423 77.5949 217.208 76.8056L217.207 76.8039L217.207 76.8039C216.992 76.0518 216.884 75.1886 216.884 74.2863V61.2076C216.884 60.3062 216.992 59.4425 217.207 58.6525C217.422 57.9004 217.743 57.2249 218.203 56.6591L218.204 56.6583C218.629 56.1271 219.196 55.6659 219.87 55.3465L219.87 55.3465C220.539 55.0298 221.356 54.8856 222.329 54.8856C223.301 54.8856 224.12 55.0293 224.826 55.3471C225.498 55.666 226.067 56.1269 226.53 56.6609C226.989 57.2263 227.309 57.9012 227.524 58.6526C227.74 59.4425 227.848 60.3062 227.848 61.2076V74.2863C227.848 75.1886 227.739 76.0518 227.524 76.8039L227.524 76.8056L227.524 76.8056C227.309 77.5949 226.988 78.2678 226.531 78.7948L226.528 78.7982L226.528 78.7983C226.068 79.3645 225.502 79.7902 224.825 80.1109L224.822 80.1121L224.822 80.1122C224.118 80.464 223.302 80.6083 222.329 80.6083ZM222.329 79.0739C220.939 79.0739 220.006 78.6131 219.455 77.752L219.453 77.7486L219.453 77.7486C218.852 76.8657 218.564 75.764 218.564 74.3959V61.098C218.564 59.7291 218.853 58.5911 219.453 57.7086L219.455 57.7053L219.455 57.7053C220.005 56.8465 220.935 56.4197 222.329 56.4197C223.724 56.4197 224.693 56.847 225.279 57.7086L225.279 57.7086C225.879 58.5911 226.167 59.7291 226.167 61.098V74.3959C226.167 75.764 225.879 76.8657 225.279 77.7486L225.279 77.7487C224.691 78.6126 223.72 79.0739 222.329 79.0739ZM219.214 77.9089C219.832 78.8736 220.871 79.3619 222.329 79.3619C223.788 79.3619 224.862 78.8736 225.517 77.9106C226.158 76.9674 226.455 75.8044 226.455 74.3959V61.098C226.455 59.6904 226.159 58.4906 225.517 57.5466C224.861 56.5813 223.785 56.1317 222.329 56.1317C220.874 56.1317 219.833 56.5813 219.214 57.5483C218.572 58.492 218.276 59.6912 218.276 61.098V74.3959C218.276 75.8036 218.573 76.966 219.214 77.9089Z" fill="#00923A"/>
<path d="M237.594 54.9608C239.567 54.9608 240.992 55.5088 241.832 56.6412C242.672 57.7736 243.074 59.3081 243.074 61.171V63.9475C243.074 65.9933 242.599 67.5277 241.649 68.5143C240.7 69.5003 239.202 70.0121 237.156 70.0121H233.978V80.5331H232.297V54.9608H237.594ZM237.156 68.4777C238.654 68.4777 239.713 68.1122 240.407 67.4182C241.065 66.7239 241.394 65.6282 241.394 64.0571V61.0618C241.394 59.6735 241.138 58.5775 240.59 57.7373C240.042 56.8971 239.019 56.495 237.594 56.495H233.978V68.4777H237.156Z" fill="#00923A"/>
<path fill-rule="evenodd" clip-rule="evenodd" d="M232.152 80.6771H234.121V70.1561H237.155C239.223 70.1561 240.765 69.639 241.753 68.6142C242.739 67.5899 243.217 66.012 243.217 63.9475V61.171C243.217 59.2891 242.812 57.7207 241.947 56.5554C241.069 55.3721 239.591 54.8168 237.594 54.8168H232.152V80.6771ZM232.44 80.3891V55.1048H237.594C239.542 55.1048 240.913 55.6455 241.716 56.727C242.531 57.8265 242.929 59.3271 242.929 61.171V63.9475C242.929 65.9746 242.459 67.4656 241.545 68.4144C240.633 69.3615 239.18 69.8681 237.155 69.8681H233.833V80.3891H232.44ZM233.833 68.6216H237.155C238.675 68.6216 239.778 68.2508 240.508 67.52L240.511 67.5172C241.206 66.784 241.537 65.6437 241.537 64.0571V61.0618C241.537 59.6573 241.278 58.5304 240.71 57.6586C240.124 56.76 239.041 56.351 237.594 56.351H233.833V68.6216ZM234.121 68.3336V56.639H237.594C238.996 56.639 239.959 57.0343 240.469 57.8159C240.996 58.6246 241.249 59.6897 241.249 61.0618V64.0571C241.249 65.6114 240.923 66.6623 240.303 67.3177C239.646 67.974 238.631 68.3336 237.155 68.3336H234.121Z" fill="#00923A"/>
<path d="M247.014 61.2076C247.014 60.2946 247.123 59.4177 247.342 58.6138C247.562 57.847 247.89 57.1526 248.366 56.5683C248.804 56.0203 249.388 55.5453 250.083 55.2164C250.777 54.8876 251.617 54.7417 252.603 54.7417C253.59 54.7417 254.43 54.8876 255.16 55.2164C255.854 55.5453 256.439 56.0203 256.914 56.5683C257.389 57.1526 257.718 57.847 257.937 58.6138C258.156 59.4177 258.266 60.2946 258.266 61.2076V74.2863C258.266 75.1995 258.156 76.0763 257.937 76.8435C257.718 77.6471 257.389 78.3414 256.914 78.8891C256.439 79.4738 255.854 79.9122 255.16 80.241C254.43 80.6061 253.59 80.7523 252.603 80.7523C251.617 80.7523 250.777 80.6061 250.083 80.241C249.388 79.9122 248.804 79.4738 248.366 78.8891C247.89 78.3414 247.562 77.6471 247.342 76.8435C247.123 76.0763 247.014 75.1995 247.014 74.2863V61.2076ZM248.694 74.396C248.694 75.7842 248.987 76.9166 249.608 77.8296C250.192 78.7431 251.178 79.2179 252.603 79.2179C254.028 79.2179 255.051 78.7431 255.672 77.8296C256.293 76.9166 256.585 75.7842 256.585 74.396V61.098C256.585 59.7098 256.293 58.5408 255.672 57.6276C255.051 56.7142 254.028 56.2758 252.603 56.2758C251.178 56.2758 250.192 56.7142 249.608 57.6276C248.987 58.5408 248.694 59.7098 248.694 61.098V74.396Z" fill="#00923A"/>
<path fill-rule="evenodd" clip-rule="evenodd" d="M250.018 80.3698C250.74 80.7488 251.605 80.8963 252.603 80.8963C253.602 80.8963 254.466 80.7483 255.223 80.3705C255.933 80.0339 256.534 79.5835 257.024 78.9817C257.516 78.4137 257.852 77.699 258.075 76.8823C258.075 76.882 258.075 76.8817 258.075 76.8814L257.936 76.8435L258.075 76.8831C258.075 76.8828 258.075 76.8826 258.075 76.8823C258.298 76.1003 258.409 75.2101 258.409 74.2863V61.2076C258.409 60.2832 258.298 59.3935 258.075 58.5759L258.075 58.5742C257.852 57.7931 257.515 57.08 257.025 56.4775L257.023 56.4739L257.022 56.474C256.536 55.913 255.936 55.4248 255.222 55.0862L255.219 55.085L255.219 55.085C254.465 54.7456 253.603 54.5976 252.603 54.5976C251.603 54.5976 250.74 54.7453 250.02 55.0862C249.306 55.4246 248.705 55.9133 248.253 56.4779C248.253 56.4777 248.253 56.4776 248.253 56.4774L248.365 56.5683L248.253 56.4783C248.253 56.4782 248.253 56.478 248.253 56.4779C247.763 57.0804 247.427 57.7933 247.204 58.5742L247.203 58.5759C246.98 59.3935 246.869 60.2832 246.869 61.2076V74.2863C246.869 75.2101 246.98 76.1002 247.203 76.8823C247.203 76.882 247.203 76.8817 247.203 76.8814L247.342 76.8435L247.203 76.8831C247.203 76.8828 247.203 76.8825 247.203 76.8823C247.426 77.698 247.762 78.4119 248.253 78.9796C248.252 78.9782 248.251 78.9769 248.25 78.9755L248.365 78.8891L248.256 78.9835C248.255 78.9822 248.254 78.9809 248.253 78.9796C248.707 79.5837 249.31 80.034 250.018 80.3698ZM250.018 80.3698C250.017 80.3694 250.016 80.3689 250.015 80.3684L250.082 80.241L250.02 80.3711C250.02 80.3707 250.019 80.3703 250.018 80.3698ZM252.603 80.6083C251.629 80.6083 250.815 80.4637 250.149 80.1135L250.144 80.1107L250.144 80.1108C249.466 79.79 248.902 79.3651 248.48 78.8027L248.474 78.7945L248.474 78.7947C248.017 78.2678 247.696 77.5949 247.481 76.8056L247.48 76.804L247.48 76.804C247.266 76.0518 247.157 75.1886 247.157 74.2863V61.2076C247.157 60.3062 247.265 59.4425 247.481 58.6525C247.696 57.9004 248.017 57.2249 248.477 56.6592L248.478 56.6583C248.903 56.1271 249.47 55.6659 250.144 55.3465C250.812 55.0298 251.629 54.8856 252.603 54.8856C253.575 54.8856 254.393 55.0293 255.1 55.3471C255.772 55.666 256.34 56.1269 256.803 56.6609C257.262 57.2263 257.583 57.9011 257.798 58.6525C258.013 59.4424 258.121 60.3062 258.121 61.2076V74.2863C258.121 75.1886 258.013 76.0518 257.798 76.804L257.797 76.8056L257.797 76.8056C257.582 77.5949 257.262 78.2678 256.805 78.7948L256.802 78.7982L256.802 78.7983C256.342 79.3645 255.775 79.7902 255.098 80.1109L255.096 80.1121L255.096 80.1122C254.391 80.464 253.575 80.6083 252.603 80.6083ZM252.603 79.0739C251.212 79.0739 250.279 78.6131 249.728 77.752L249.726 77.7486L249.726 77.7486C249.126 76.8657 248.838 75.764 248.838 74.3959V61.098C248.838 59.7291 249.126 58.5911 249.726 57.7086L249.728 57.7053L249.728 57.7053C250.278 56.8465 251.209 56.4197 252.603 56.4197C253.997 56.4197 254.967 56.847 255.552 57.7086L255.552 57.7086C256.152 58.5911 256.441 59.7291 256.441 61.098V74.3959C256.441 75.764 256.153 76.8657 255.552 77.7486L255.552 77.7487C254.965 78.6126 253.994 79.0739 252.603 79.0739ZM249.487 77.9089C250.105 78.8736 251.144 79.3619 252.603 79.3619C254.062 79.3619 255.136 78.8736 255.79 77.9106C256.432 76.9674 256.729 75.8044 256.729 74.3959V61.098C256.729 59.6904 256.432 58.4906 255.79 57.5467C255.134 56.5813 254.058 56.1317 252.603 56.1317C251.148 56.1317 250.107 56.5813 249.487 57.5483C248.846 58.492 248.55 59.6912 248.55 61.098V74.3959C248.55 75.8036 248.846 76.966 249.487 77.9089Z" fill="#00923A"/>
<path d="M267.941 54.9608C269.877 54.9608 271.228 55.4355 271.996 56.3491C272.763 57.2621 273.165 58.6138 273.165 60.4042V61.8653C273.165 63.2535 272.946 64.3859 272.471 65.226C271.996 66.0666 271.083 66.651 269.804 66.9069C271.192 67.1623 272.178 67.7837 272.763 68.7335C273.347 69.7195 273.64 70.9252 273.64 72.3864V74.6149C273.64 76.4781 273.201 77.903 272.324 78.9624C271.448 80.0218 270.023 80.5331 268.05 80.5331H262.57V54.9608H267.941ZM267.1 66.2492C267.868 66.2492 268.525 66.1762 269.073 66.0666C269.621 65.957 270.059 65.7378 270.425 65.409C270.79 65.1164 271.046 64.7147 271.228 64.1667C271.411 63.6552 271.484 62.9977 271.484 62.1942V60.5501C271.484 59.1985 271.228 58.212 270.717 57.518C270.206 56.8238 269.256 56.495 267.904 56.495H264.251V66.2492H267.1ZM268.05 78.9987C269.475 78.9987 270.461 78.6335 271.083 77.8663C271.667 77.0991 271.959 76.0029 271.959 74.5784V72.2767C271.959 70.6331 271.594 69.4641 270.827 68.7698C270.059 68.1122 268.927 67.7837 267.429 67.7837H264.251V78.9987H268.05Z" fill="#00923A"/>
<path fill-rule="evenodd" clip-rule="evenodd" d="M262.426 80.6771H268.05C270.044 80.6771 271.52 80.1598 272.435 79.0542C273.339 77.9615 273.783 76.5005 273.783 74.6149V72.3864C273.783 70.906 273.487 69.6734 272.886 68.6601L272.885 68.658C272.362 67.8084 271.534 67.2174 270.417 66.9012C271.425 66.592 272.172 66.0462 272.596 65.2969C273.088 64.4264 273.308 63.2659 273.308 61.8653V60.4042C273.308 58.5947 272.902 57.2049 272.105 56.2565C271.298 55.2953 269.894 54.8168 267.94 54.8168H262.426V80.6771ZM262.714 80.3891V55.1048H267.94C269.858 55.1048 271.158 55.5756 271.885 56.4417C272.622 57.3193 273.02 58.6328 273.02 60.4042V61.8653C273.02 63.2412 272.802 64.3454 272.345 65.1552C271.896 65.9485 271.027 66.5152 269.775 66.7656L269.04 66.9127L269.777 67.0485C271.134 67.2983 272.08 67.9011 272.639 68.808C273.207 69.7665 273.495 70.945 273.495 72.3864V74.6149C273.495 76.4556 273.062 77.8444 272.213 78.8706C271.374 79.8837 270 80.3891 268.05 80.3891H262.714ZM264.106 79.1427H268.05C269.498 79.1427 270.534 78.7711 271.194 77.957L271.197 77.9536C271.807 77.1519 272.102 76.02 272.102 74.5784V72.2767C272.102 70.6178 271.735 69.3979 270.923 68.663L270.92 68.6604C270.116 67.9718 268.945 67.6396 267.429 67.6396H264.106V79.1427ZM264.394 78.8547V67.9276H267.429C268.907 67.9276 270 68.2521 270.731 68.8779C271.452 69.5317 271.814 70.6496 271.814 72.2767V74.5784C271.814 75.9847 271.526 77.0447 270.969 77.7773C270.385 78.4965 269.451 78.8547 268.05 78.8547H264.394ZM264.106 66.3932H267.1C267.876 66.3932 268.543 66.3193 269.101 66.2078C269.671 66.0938 270.132 65.8646 270.518 65.5188C270.908 65.2052 271.176 64.7784 271.364 64.2137C271.554 63.6794 271.628 63.0031 271.628 62.1942V60.5501C271.628 59.183 271.369 58.1613 270.832 57.4326C270.28 56.6828 269.272 56.351 267.903 56.351H264.106V66.3932ZM264.394 66.1052V56.639H267.903C269.239 56.639 270.13 56.9647 270.601 57.6034C271.086 58.2627 271.34 59.214 271.34 60.5501V62.1942C271.34 62.9915 271.267 63.6298 271.092 64.1183L271.091 64.1212C270.915 64.6501 270.673 65.0256 270.334 65.2966L270.328 65.3017C269.983 65.612 269.569 65.8205 269.044 65.9254C268.506 66.0331 267.858 66.1052 267.1 66.1052H264.394Z" fill="#00923A"/>
<path d="M282.73 65.4819C284.813 65.4819 286.311 65.9932 287.261 66.9798C288.21 67.9662 288.685 69.5003 288.685 71.5462V74.3226C288.685 75.2362 288.576 76.0763 288.393 76.8435C288.174 77.6105 287.845 78.2681 287.406 78.8162C286.968 79.3642 286.42 79.8026 285.726 80.0947C285.032 80.3868 284.155 80.5331 283.169 80.5331H277.908V54.9608H279.589V65.4819H282.73ZM283.169 78.9987C284.594 78.9987 285.616 78.5968 286.164 77.7567C286.713 76.9166 287.005 75.8204 287.005 74.4322V71.4366C287.005 69.8658 286.676 68.7335 285.982 68.0391C285.288 67.3452 284.228 67.0165 282.73 67.0165H279.589V78.9987H283.169Z" fill="#00923A"/>
<path fill-rule="evenodd" clip-rule="evenodd" d="M277.764 80.6771H283.168C284.167 80.6771 285.065 80.5291 285.781 80.2274C286.499 79.9252 287.066 79.4714 287.518 78.9061C287.97 78.3412 288.307 77.6659 288.531 76.8831L288.533 76.8769C288.718 76.0992 288.829 75.2478 288.829 74.3225V71.5462C288.829 69.4816 288.35 67.904 287.364 66.8799C286.376 65.8542 284.833 65.3379 282.73 65.3379H279.732V54.8168H277.764V80.6771ZM278.052 80.3891V55.1048H279.444V65.6259H282.73C284.792 65.6259 286.244 66.1322 287.156 67.0796C288.07 68.0283 288.541 69.519 288.541 71.5462V74.3225C288.541 75.2232 288.433 76.0512 288.253 76.807C288.038 77.5568 287.718 78.1956 287.293 78.7262C286.869 79.2569 286.34 79.6798 285.67 79.9619C284.999 80.2445 284.142 80.3891 283.168 80.3891H278.052ZM279.444 79.1427H283.168C284.616 79.1427 285.698 78.734 286.285 77.8354C286.852 76.9658 287.148 75.8402 287.148 74.4322V71.4365C287.148 69.8515 286.817 68.6719 286.083 67.9373C285.35 67.2048 284.246 66.8725 282.73 66.8725H279.444V79.1427ZM279.732 78.8547V67.1605H282.73C284.21 67.1605 285.224 67.4857 285.88 68.1409C286.533 68.7952 286.86 69.88 286.86 71.4365V74.4322C286.86 75.8006 286.572 76.8673 286.043 77.678C285.534 78.4596 284.571 78.8547 283.168 78.8547H279.732Z" fill="#00923A"/>
<path d="M301.611 66.7972V68.3314H294.634V78.9987H303.036V80.5331H292.953V54.9608H303.036V56.495H294.634V66.7972H301.611Z" fill="#00923A"/>
<path fill-rule="evenodd" clip-rule="evenodd" d="M292.809 80.6771H303.18V78.8547H294.777V68.4754H301.755V66.6532H294.777V56.639H303.18V54.8168H292.809V80.6771ZM293.097 80.3891V55.1048H302.892V56.351H294.489V66.9412H301.467V68.1874H294.489V79.1427H302.892V80.3891H293.097Z" fill="#00923A"/>
</svg>
