<svg width="16" height="17" viewBox="0 0 16 17" fill="none" xmlns="http://www.w3.org/2000/svg">
<path d="M6.4395 13.7902C7.86959 13.7903 9.2588 13.3131 10.387 12.4343L14.6436 16.6908C14.9615 16.9979 15.4682 16.9891 15.7753 16.6712C16.0749 16.361 16.0749 15.8692 15.7753 15.5591L11.5188 11.3026C13.6994 8.49556 13.1916 4.45229 10.3846 2.27169C7.57756 0.0910844 3.53433 0.598872 1.35372 3.4059C-0.826884 6.21293 -0.319097 10.2562 2.48793 12.4368C3.61802 13.3147 5.00847 13.7909 6.4395 13.7902ZM3.01943 3.93494C4.9083 2.04603 7.97076 2.046 9.85967 3.93487C11.7486 5.82374 11.7486 8.8862 9.85974 10.7751C7.97087 12.664 4.90841 12.664 3.0195 10.7752L3.01943 10.7751C1.13056 8.9 1.11943 5.8487 2.99454 3.95983L3.01943 3.93494Z" fill="#999999"/>
</svg>
