<svg width="41" height="41" viewBox="0 0 41 41" fill="none" xmlns="http://www.w3.org/2000/svg">
<path fill-rule="evenodd" clip-rule="evenodd" d="M0.666748 33.3865C0.666748 34.0337 1.19141 34.5584 1.83862 34.5584H25.6875C26.3347 34.5584 26.8594 34.0337 26.8594 33.3865C26.8594 32.7393 26.3347 32.2147 25.6875 32.2147H3.0105V3.17828H38.3229V32.2147H33.2188C32.5716 32.2147 32.0469 32.7393 32.0469 33.3865C32.0469 34.0337 32.5716 34.5584 33.2188 34.5584H39.4948C40.142 34.5584 40.6666 34.0337 40.6666 33.3865V2.0064C40.6666 1.35919 40.142 0.834526 39.4948 0.834526H1.83862C1.19141 0.834526 0.666748 1.35919 0.666748 2.0064V33.3865Z" fill="white"/>
<path fill-rule="evenodd" clip-rule="evenodd" d="M23.2605 25.8554C23.2605 29.2735 26.0352 32.048 29.4532 32.048C32.8713 32.048 35.6459 29.2735 35.6459 25.8554C35.6459 22.4372 32.8713 19.6627 29.4532 19.6627C26.0352 19.6627 23.2605 22.4372 23.2605 25.8554ZM29.4532 29.7043C27.3296 29.7043 25.6042 27.979 25.6042 25.8554C25.6042 23.7317 27.3296 22.0064 29.4532 22.0064C31.5769 22.0064 33.3022 23.7317 33.3022 25.8554C33.3022 27.979 31.5769 29.7043 29.4532 29.7043Z" fill="white"/>
<path fill-rule="evenodd" clip-rule="evenodd" d="M25.0714 40.6595C25.4169 40.873 25.8483 40.8924 26.2116 40.7108L29.4531 39.09L32.6947 40.7108C33.0579 40.8924 33.4893 40.873 33.8348 40.6595C34.1803 40.4459 34.3906 40.0687 34.3906 39.6626V29.1747C34.3906 28.5275 33.8659 28.0029 33.2187 28.0029C32.5715 28.0029 32.0469 28.5275 32.0469 29.1747V37.7665L29.9772 36.7316C29.6473 36.5667 29.259 36.5667 28.929 36.7316L26.8594 37.7665V29.1747C26.8594 28.5275 26.3347 28.0029 25.6875 28.0029C25.0403 28.0029 24.5156 28.5275 24.5156 29.1747V39.6626C24.5156 40.0687 24.7259 40.4459 25.0714 40.6595Z" fill="white"/>
<path fill-rule="evenodd" clip-rule="evenodd" d="M11.9636 9.53766C11.9636 10.1849 12.4883 10.7095 13.1355 10.7095H28.198C28.8452 10.7095 29.3699 10.1849 29.3699 9.53766C29.3699 8.89045 28.8452 8.36578 28.198 8.36578H13.1355C12.4883 8.36578 11.9636 8.89045 11.9636 9.53766Z" fill="white"/>
<path fill-rule="evenodd" clip-rule="evenodd" d="M8.198 15.8137C8.198 16.4609 8.72266 16.9855 9.36987 16.9855H31.9635C32.6107 16.9855 33.1354 16.4609 33.1354 15.8137C33.1354 15.1665 32.6107 14.6418 31.9635 14.6418H9.36987C8.72266 14.6418 8.198 15.1665 8.198 15.8137Z" fill="white"/>
<path fill-rule="evenodd" clip-rule="evenodd" d="M8.198 20.8345C8.198 21.4817 8.72266 22.0064 9.36987 22.0064H19.4115C20.0587 22.0064 20.5834 21.4817 20.5834 20.8345C20.5834 20.1873 20.0587 19.6627 19.4115 19.6627H9.36987C8.72266 19.6627 8.198 20.1873 8.198 20.8345Z" fill="white"/>
<path fill-rule="evenodd" clip-rule="evenodd" d="M8.198 25.8553C8.198 26.5026 8.72266 27.0272 9.36987 27.0272H19.4115C20.0587 27.0272 20.5834 26.5026 20.5834 25.8553C20.5834 25.2081 20.0587 24.6835 19.4115 24.6835H9.36987C8.72266 24.6835 8.198 25.2081 8.198 25.8553Z" fill="white"/>
</svg>
