<svg width="20" height="21" viewBox="0 0 20 21" fill="none" xmlns="http://www.w3.org/2000/svg">
<g clip-path="url(#clip0_14_315)">
<path d="M19.9478 7.44678C19.8839 7.24859 19.763 7.07361 19.6003 6.94364C19.4376 6.81367 19.2402 6.73447 19.0328 6.71591L13.2602 6.19171L10.9776 0.849001C10.8092 0.457467 10.426 0.204102 10.0001 0.204102C9.57422 0.204102 9.19089 0.457506 9.0226 0.849977L6.73997 6.19175L0.9665 6.71591C0.759313 6.73489 0.562253 6.81426 0.39975 6.94418C0.237248 7.0741 0.116451 7.24886 0.052336 7.44678C-0.079347 7.8518 0.0422577 8.29599 0.363164 8.57599L4.72656 12.4027L3.43988 18.0704C3.34574 18.4871 3.50746 18.9179 3.85325 19.1678C4.03908 19.3021 4.25654 19.3705 4.47581 19.3705C4.66488 19.3705 4.85238 19.3195 5.02074 19.2188L10.0001 16.2428L14.9776 19.2188C15.3419 19.4379 15.801 19.4179 16.146 19.1678C16.3149 19.0456 16.4442 18.8764 16.5177 18.6812C16.5912 18.4861 16.6057 18.2737 16.5594 18.0704L15.2728 12.4027L19.6361 8.57677C19.7931 8.43969 19.9063 8.2595 19.9617 8.05861C20.0171 7.85771 20.0123 7.64496 19.9478 7.44678Z" fill="#FFC107"/>
</g>
<defs>
<clipPath id="clip0_14_315">
<rect width="20" height="20" fill="white" transform="translate(0 0.165527)"/>
</clipPath>
</defs>
</svg>
