<svg width="32" height="33" viewBox="0 0 32 33" fill="none" xmlns="http://www.w3.org/2000/svg">
<path d="M16 32.1655C24.8366 32.1655 32 25.0021 32 16.1655C32 7.32897 24.8366 0.165527 16 0.165527C7.16344 0.165527 0 7.32897 0 16.1655C0 25.0021 7.16344 32.1655 16 32.1655Z" fill="url(#paint0_linear_138_1085)"/>
<path fill-rule="evenodd" clip-rule="evenodd" d="M7.24262 15.9967C11.9069 13.9645 15.0172 12.6248 16.5734 11.9775C21.0168 10.1294 21.9401 9.80834 22.5419 9.79772C22.6742 9.79541 22.9702 9.82822 23.1619 9.98378C23.4462 10.2145 23.4479 10.7154 23.4163 11.0469C23.1755 13.5769 22.1336 19.7165 21.6036 22.5501C21.3792 23.7491 20.9376 24.1512 20.5101 24.1905C19.581 24.276 18.8754 23.5764 17.9755 22.9865C16.5673 22.0634 15.7717 21.4888 14.4048 20.588C12.8251 19.547 13.8492 18.9749 14.7494 18.0398C14.9851 17.7952 19.0789 14.0715 19.1581 13.7337C19.1681 13.6914 19.1772 13.5339 19.0837 13.4508C18.9901 13.3677 18.8521 13.396 18.7524 13.4187C18.6112 13.4507 16.3616 14.9377 12.0036 17.8794C11.365 18.3179 10.7866 18.5315 10.2684 18.5203C9.69712 18.508 8.59825 18.1973 7.78131 17.9318C6.77931 17.6061 5.98293 17.4338 6.05231 16.8807C6.08843 16.5925 6.48518 16.2979 7.24262 15.9967Z" fill="white"/>
<defs>
<linearGradient id="paint0_linear_138_1085" x1="16" y1="0.165527" x2="16" y2="31.9155" gradientUnits="userSpaceOnUse">
<stop stop-color="#2AABEE"/>
<stop offset="1" stop-color="#229ED9"/>
</linearGradient>
</defs>
</svg>
