<svg width="32" height="33" viewBox="0 0 32 33" fill="none" xmlns="http://www.w3.org/2000/svg">
<g clip-path="url(#clip0_14_495)">
<rect x="1" y="1" width="30" height="30" rx="15" fill="white"/>
<path d="M16 0.165527C7.16344 0.165527 0 7.32897 0 16.1655C0 25.0021 7.16344 32.1655 16 32.1655C24.8366 32.1655 32 25.0021 32 16.1655C32 7.32897 24.8366 0.165527 16 0.165527ZM25.3895 22.0118L22.6295 22.0497C22.6295 22.0497 22.0358 22.1676 21.2569 21.6287C20.2232 20.9192 19.2506 19.0771 18.4927 19.3128C17.7348 19.5486 17.7474 21.2076 17.7474 21.2076C17.7499 21.4022 17.6901 21.5925 17.5769 21.7508C17.4176 21.8873 17.2212 21.973 17.0128 21.9971H15.7896C15.7896 21.9971 13.0527 22.1592 10.6632 19.6623C8.03588 16.9508 5.72219 11.5339 5.72219 11.5339C5.72219 11.5339 5.58594 11.2197 5.73481 11.0076C5.8635 10.8242 6.18087 10.8045 6.34113 10.7971C7.03194 10.7648 9.10744 10.7782 9.10744 10.7782C9.28106 10.7738 9.39775 10.783 9.61269 10.8771C9.79744 10.9684 9.93756 11.1044 10.0274 11.3234C10.3468 12.1185 10.7174 12.8921 11.1369 13.6392C12.3706 15.7718 12.9454 16.2371 13.3643 16.0097C13.9727 15.6771 13.7854 12.9971 13.7854 12.9971C13.7854 12.9971 13.7854 12.0223 13.478 11.5908C13.2467 11.3205 12.9203 11.1494 12.5664 11.1129C12.4001 11.0897 12.6738 10.7045 13.0275 10.5318C13.558 10.2708 14.497 10.2708 15.6043 10.2708C16.0916 10.2524 16.5791 10.302 17.0527 10.4182C18.0717 10.6645 17.7264 11.6118 17.7264 13.8897C17.7264 14.6182 17.5938 15.6455 18.1201 15.995C18.3475 16.1402 18.8991 16.016 20.2843 13.6665C20.7262 12.8891 21.1098 12.0798 21.4317 11.2455C21.4937 11.1129 21.5877 10.9978 21.7054 10.9107C21.8298 10.8488 21.9695 10.8246 22.1075 10.8412L25.2149 10.8202C25.2149 10.8202 26.1475 10.7086 26.2991 11.1317C26.4506 11.5549 25.9496 12.6054 24.6801 14.2896C22.5959 17.0685 22.3643 16.8159 24.0949 18.4138C25.7475 19.9485 26.0907 20.6959 26.1475 20.7885C26.8337 21.9213 25.3895 22.0118 25.3895 22.0118Z" fill="#4C75A3"/>
</g>
<defs>
<clipPath id="clip0_14_495">
<rect width="32" height="32" fill="white" transform="translate(0 0.165527)"/>
</clipPath>
</defs>
</svg>
