<svg width="32" height="33" viewBox="0 0 32 33" fill="none" xmlns="http://www.w3.org/2000/svg">
<g clip-path="url(#clip0_14_487)">
<path d="M16 32.1655C24.8366 32.1655 32 25.0021 32 16.1655C32 7.32897 24.8366 0.165527 16 0.165527C7.16344 0.165527 0 7.32897 0 16.1655C0 25.0021 7.16344 32.1655 16 32.1655Z" fill="#29A71A"/>
<path d="M23.0546 9.11089C21.39 7.42961 19.1793 6.39854 16.8214 6.20365C14.4634 6.00877 12.1135 6.6629 10.1954 8.04805C8.27727 9.43321 6.91728 11.4582 6.36071 13.7578C5.80415 16.0573 6.08766 18.4801 7.16009 20.5891L6.10736 25.7C6.09644 25.7508 6.09613 25.8034 6.10645 25.8544C6.11678 25.9054 6.13751 25.9537 6.16736 25.9963C6.21109 26.061 6.27351 26.1108 6.34628 26.1391C6.41905 26.1673 6.49872 26.1727 6.57463 26.1545L11.5837 24.9672C13.6867 26.0125 16.0924 26.2778 18.3727 25.7159C20.6529 25.1539 22.6599 23.8012 24.0364 21.8985C25.4129 19.9957 26.0697 17.6663 25.8899 15.3247C25.7102 12.9831 24.7055 10.7812 23.0546 9.11089ZM21.4928 21.5763C20.341 22.7249 18.8579 23.483 17.2524 23.744C15.6469 24.005 14 23.7555 12.5437 23.0309L11.8455 22.6854L8.77463 23.4127L8.78373 23.3745L9.42009 20.2836L9.07827 19.6091C8.3342 18.1477 8.07172 16.4884 8.32843 14.8688C8.58514 13.2491 9.34787 11.7523 10.5074 10.5927C11.9643 9.13624 13.94 8.31804 16.0001 8.31804C18.0602 8.31804 20.0359 9.13624 21.4928 10.5927C21.5052 10.6069 21.5186 10.6203 21.5328 10.6327C22.9717 12.0929 23.7749 14.0628 23.7674 16.1128C23.7599 18.1628 22.9423 20.1267 21.4928 21.5763Z" fill="white"/>
<path d="M21.2198 19.3091C20.8434 19.9018 20.2489 20.6272 19.5016 20.8072C18.1925 21.1236 16.1834 20.8181 13.6834 18.4872L13.6525 18.46C11.4543 16.4218 10.8834 14.7254 11.0216 13.38C11.098 12.6163 11.7343 11.9254 12.2707 11.4745C12.3555 11.4021 12.4561 11.3506 12.5643 11.324C12.6726 11.2975 12.7856 11.2966 12.8943 11.3215C13.0029 11.3465 13.1042 11.3964 13.1901 11.4675C13.276 11.5386 13.3441 11.6288 13.3889 11.7309L14.198 13.5491C14.2506 13.6669 14.27 13.7969 14.2543 13.925C14.2387 14.0532 14.1884 14.1746 14.1089 14.2763L13.6998 14.8072C13.612 14.9169 13.5591 15.0502 13.5477 15.1902C13.5364 15.3302 13.5672 15.4704 13.6362 15.5927C13.8653 15.9945 14.4143 16.5854 15.0234 17.1327C15.7071 17.7509 16.4653 18.3163 16.9453 18.5091C17.0737 18.5615 17.2149 18.5743 17.3507 18.5458C17.4865 18.5173 17.6106 18.4488 17.7071 18.3491L18.1816 17.8709C18.2732 17.7806 18.3871 17.7162 18.5116 17.6842C18.6362 17.6523 18.767 17.654 18.8907 17.6891L20.8125 18.2345C20.9185 18.267 21.0157 18.3234 21.0966 18.3992C21.1775 18.475 21.24 18.5684 21.2793 18.672C21.3186 18.7757 21.3337 18.887 21.3234 18.9974C21.313 19.1078 21.2776 19.2144 21.2198 19.3091Z" fill="white"/>
</g>
<defs>
<clipPath id="clip0_14_487">
<rect width="32" height="32" fill="white" transform="translate(0 0.165527)"/>
</clipPath>
</defs>
</svg>
