<svg width="101" height="30" viewBox="0 0 101 30" fill="none" xmlns="http://www.w3.org/2000/svg">
<g clip-path="url(#clip0_14_397)">
<path d="M96.3018 25.9109C98.2718 25.9109 99.6682 25.5517 100.705 24.7985V21.3219C99.4872 22.1634 98.0305 22.59 96.5509 22.5387C93.5089 22.5387 92.2516 20.1747 92.2516 16.449C92.2516 12.5495 93.7929 10.5447 96.5857 10.5447C98.0316 10.5556 99.4504 10.9387 100.705 11.6572V8.04163C99.813 7.54333 98.237 7.18408 96.1221 7.18408C90.6814 7.18408 87.8538 11.0894 87.8538 16.5649C87.8538 22.5793 90.6176 25.9109 96.3018 25.9109ZM69.6484 24.3349V20.8584C67.9645 21.9233 66.0201 22.5046 64.028 22.5387C60.9107 22.5387 59.7287 21.0728 59.5549 18.0656H69.828V15.8116C69.828 9.54811 67.07 7.18408 62.8112 7.18408C57.5965 7.18408 55.1513 11.1589 55.1513 16.5996C55.1513 22.8632 58.228 25.9109 63.6746 25.9109C65.7841 25.9944 67.8704 25.4456 69.6658 24.3349H69.6484ZM30.6244 7.53174V14.6586H24.9345V7.53174H20.6758V25.5401H24.9345V18.0077H30.6244V25.5401H34.889V7.54332H30.6244V7.53174ZM54.1141 22.1853H52.2136V7.54332H39.8082V9.08458C39.8082 13.4882 39.5185 19.1839 38.0178 22.1911H36.691V29.654H40.631V25.5343H50.1915V29.654H54.1141V22.1853ZM83.259 25.5517H88.0914L81.2542 15.8464L87.2686 7.53752H82.9751L76.9607 15.8464V7.54332H72.7135V25.5517H76.9723V16.7097L83.259 25.5517ZM62.7591 10.5331C64.874 10.5331 65.5171 12.2714 65.5171 14.5427V14.902H59.5723C59.6766 12.0512 60.7195 10.5331 62.7591 10.5331ZM47.9723 22.1853H41.9463C43.1051 19.462 43.447 14.5601 43.447 11.4428V10.904H47.9607L47.9723 22.1853Z" fill="black"/>
<path d="M17.1067 25.5516H12.7726V4.03196H10.8373C7.29129 4.03196 5.43136 5.82237 5.43136 8.47032C5.43136 11.4775 6.72346 12.8739 9.37141 14.6643L11.5558 16.1302L5.25174 25.5458H0.564209L6.21936 17.1327C2.96302 14.815 1.13205 12.5494 1.13205 8.71947C1.13205 3.92187 4.46371 0.665527 10.7968 0.665527H17.1009V25.5458L17.1067 25.5516Z" fill="#FC3F1D"/>
</g>
<defs>
<clipPath id="clip0_14_397">
<rect width="100.141" height="29" fill="white" transform="translate(0.570312 0.665527)"/>
</clipPath>
</defs>
</svg>
